# Blender 3.4.1
# www.blender.org
o chest
v -1.059025 -0.586100 0.586100
v -1.059025 0.586100 0.586100
v -1.059025 -0.586100 -0.586100
v -1.059025 0.586100 -0.586100
v 0.000000 -0.586100 -0.586100
v 0.000000 0.586100 -0.586100
v 0.000000 -0.586100 0.586100
v 0.000000 0.586100 0.586100
v -1.059025 -0.439575 0.586100
v -1.059025 -0.293050 0.586100
v 0.000000 -0.439575 0.626570
v 0.000000 -0.293050 0.626570
v 0.000000 0.293050 0.626570
v -1.059025 0.293050 0.586100
v -1.059025 0.439575 0.586100
v -1.059025 0.439575 -0.586100
v -1.059025 0.293050 -0.586100
v 0.000000 0.439575 0.626570
v -1.101193 -0.439575 -0.626570
v -1.101193 -0.293050 -0.626570
v -1.059025 -0.293050 -0.586100
v -1.059025 -0.439575 -0.586100
v 0.000000 0.439575 0.586100
v 0.000000 0.293050 0.586100
v -1.101193 0.293050 -0.626570
v -1.101193 0.439575 -0.626570
v -1.101193 0.439575 0.626570
v 0.000000 -0.293050 0.586100
v 0.000000 -0.439575 0.586100
v 0.000000 0.439575 -0.586100
v 0.000000 0.293050 -0.586100
v -1.101193 0.293050 0.626570
v -1.101193 -0.293050 0.626570
v -1.101193 -0.439575 0.626570
v 0.000000 -0.293050 -0.586100
v 0.000000 -0.439575 -0.586100
v 0.000000 0.439575 -0.626570
v 0.000000 0.293050 -0.626570
v 0.000000 -0.293050 -0.626570
v 0.000000 -0.439575 -0.626570
v -1.059025 -0.586100 -0.447072
v -1.059025 -0.586100 0.447072
v -1.059025 0.693235 0.447072
v -1.059025 0.693235 -0.447072
v 0.000000 0.693235 -0.447072
v 0.000000 0.693235 0.447072
v 0.000000 -0.586100 -0.447072
v 0.000000 -0.586100 0.447072
v -1.101193 0.439575 0.477942
v -1.101193 0.439575 -0.477942
v -1.101193 0.293050 0.477942
v -1.101193 0.293050 -0.477942
v -1.101193 -0.293050 0.477942
v -1.101193 -0.293050 -0.477942
v -1.101193 -0.439575 0.477942
v -1.101193 -0.439575 -0.477942
v -1.059025 -0.439575 0.447072
v -1.059025 -0.439575 -0.447072
v -1.059025 -0.293050 0.447072
v -1.059025 -0.293050 -0.447072
v -1.059025 0.293050 0.447072
v -1.059025 0.293050 -0.447072
v -1.059025 0.439575 0.447072
v -1.059025 0.439575 -0.447072
v -1.059025 -0.586100 0.000000
v -1.059025 0.758716 0.000000
v 0.000000 0.758716 0.000000
v 0.000000 -0.586100 0.000000
v -1.101193 0.439575 0.000000
v -1.101193 0.293050 0.000000
v -1.101193 -0.293050 0.000000
v -1.101193 -0.439575 0.000000
v -1.059025 -0.439575 0.000000
v -1.059025 -0.293050 0.000000
v -1.059025 0.293050 0.000000
v -1.059025 0.439575 0.000000
v 0.000000 -0.170278 0.651041
v 0.000000 0.170278 0.651041
v 0.000000 -0.170278 0.570904
v 0.000000 0.170278 0.570904
v -0.198742 -0.170278 0.570904
v -0.198742 0.116416 0.570904
v -0.198742 -0.170278 0.651041
v -0.198742 0.116416 0.651041
v -1.059025 0.439575 -0.586100
v 0.000000 0.439575 -0.586100
v 0.000000 0.439575 0.586100
v -1.059025 0.439575 0.586100
v -1.059025 0.439575 -0.447072
v -1.059025 0.439575 0.447072
v -1.059025 0.439575 0.000000
v -1.059025 0.293050 -0.586100
v 0.000000 0.293050 -0.586100
v 0.000000 0.293050 0.586100
v -1.059025 0.293050 0.586100
v -1.059025 0.293050 -0.447072
v -1.059025 0.293050 0.447072
v -1.059025 0.293050 0.000000
v -1.059025 -0.293050 -0.586100
v 0.000000 -0.293050 -0.586100
v 0.000000 -0.293050 0.586100
v -1.059025 -0.293050 0.586100
v -1.059025 -0.293050 -0.447072
v -1.059025 -0.293050 0.447072
v -1.059025 -0.293050 0.000000
v -1.059025 -0.439575 -0.586100
v 0.000000 -0.439575 -0.586100
v 0.000000 -0.439575 0.586100
v -1.059025 -0.439575 0.586100
v -1.059025 -0.439575 -0.447072
v -1.059025 -0.439575 0.447072
v -1.059025 -0.439575 0.000000
v 1.059025 -0.586100 0.586100
v 1.059025 0.586100 0.586100
v 1.059025 -0.586100 -0.586100
v 1.059025 0.586100 -0.586100
v 1.059025 -0.439575 0.586100
v 1.059025 -0.293050 0.586100
v 1.059025 0.293050 0.586100
v 1.059025 0.439575 0.586100
v 1.059025 0.439575 -0.586100
v 1.059025 0.293050 -0.586100
v 1.101193 -0.439575 -0.626570
v 1.101193 -0.293050 -0.626570
v 1.059025 -0.293050 -0.586100
v 1.059025 -0.439575 -0.586100
v 1.101193 0.293050 -0.626570
v 1.101193 0.439575 -0.626570
v 1.101193 0.439575 0.626570
v 1.101193 0.293050 0.626570
v 1.101193 -0.293050 0.626570
v 1.101193 -0.439575 0.626570
v 1.059025 -0.586100 -0.447072
v 1.059025 -0.586100 0.447072
v 1.059025 0.693235 0.447072
v 1.059025 0.693235 -0.447072
v 1.101193 0.439575 0.477942
v 1.101193 0.439575 -0.477942
v 1.101193 0.293050 0.477942
v 1.101193 0.293050 -0.477942
v 1.101193 -0.293050 0.477942
v 1.101193 -0.293050 -0.477942
v 1.101193 -0.439575 0.477942
v 1.101193 -0.439575 -0.477942
v 1.059025 -0.439575 0.447072
v 1.059025 -0.439575 -0.447072
v 1.059025 -0.293050 0.447072
v 1.059025 -0.293050 -0.447072
v 1.059025 0.293050 0.447072
v 1.059025 0.293050 -0.447072
v 1.059025 0.439575 0.447072
v 1.059025 0.439575 -0.447072
v 1.059025 -0.586100 0.000000
v 1.059025 0.758716 0.000000
v 1.101193 0.439575 0.000000
v 1.101193 0.293050 0.000000
v 1.101193 -0.293050 0.000000
v 1.101193 -0.439575 0.000000
v 1.059025 -0.439575 0.000000
v 1.059025 -0.293050 0.000000
v 1.059025 0.293050 0.000000
v 1.059025 0.439575 0.000000
v 0.198742 -0.170278 0.570904
v 0.198742 0.116416 0.570904
v 0.198742 -0.170278 0.651041
v 0.198742 0.116416 0.651041
v 1.059025 0.439575 -0.586100
v 1.059025 0.439575 0.586100
v 1.059025 0.439575 -0.447072
v 1.059025 0.439575 0.447072
v 1.059025 0.439575 0.000000
v 1.059025 0.293050 -0.586100
v 1.059025 0.293050 0.586100
v 1.059025 0.293050 -0.447072
v 1.059025 0.293050 0.447072
v 1.059025 0.293050 0.000000
v 1.059025 -0.293050 -0.586100
v 1.059025 -0.293050 0.586100
v 1.059025 -0.293050 -0.447072
v 1.059025 -0.293050 0.447072
v 1.059025 -0.293050 0.000000
v 1.059025 -0.439575 -0.586100
v 1.059025 -0.439575 0.586100
v 1.059025 -0.439575 -0.447072
v 1.059025 -0.439575 0.447072
v 1.059025 -0.439575 0.000000
vn -1.0000 -0.0000 -0.0000
vn -0.6544 0.6962 -0.2952
vn -0.6200 0.3463 -0.7041
vn -0.7071 -0.0000 -0.7071
vn -0.0000 -0.0000 1.0000
vn -0.0000 0.4414 0.8973
vn -0.6200 0.3463 0.7041
vn -0.7071 -0.0000 0.7071
vn -0.0000 0.9207 0.3903
vn -0.6544 0.6962 0.2952
vn -0.7071 -0.7071 -0.0000
vn -0.0000 -1.0000 -0.0000
vn -0.0000 -0.7071 0.7071
vn -0.5774 -0.5774 0.5774
vn -0.0000 0.4414 -0.8973
vn -0.0000 -0.0000 -1.0000
vn -0.5774 -0.5774 -0.5774
vn -0.0000 -0.7071 -0.7071
vn -0.0000 1.0000 -0.0000
vn -0.0000 0.7071 -0.7071
vn -0.5774 0.5774 -0.5774
vn -0.7071 0.7071 -0.0000
vn -0.5774 0.5774 0.5774
vn -0.0000 0.7071 0.7071
vn -0.0000 0.9207 -0.3903
vn -0.6759 0.7370 -0.0000
vn 0.4600 0.8879 -0.0000
vn -0.7942 0.6076 -0.0000
vn -0.6398 0.4895 0.5926
vn 0.3653 0.7052 0.6076
vn 0.4472 -0.8944 -0.0000
vn 0.3333 -0.6667 0.6667
vn 1.0000 -0.0000 -0.0000
vn 0.7071 -0.0000 -0.7071
vn 0.6200 0.3463 -0.7041
vn 0.6544 0.6962 -0.2952
vn 0.7071 -0.0000 0.7071
vn 0.6200 0.3463 0.7041
vn 0.6544 0.6962 0.2952
vn 0.7071 -0.7071 -0.0000
vn 0.5774 -0.5774 0.5774
vn 0.5774 -0.5774 -0.5774
vn 0.5774 0.5774 -0.5774
vn 0.7071 0.7071 -0.0000
vn 0.5774 0.5774 0.5774
vn 0.6759 0.7370 -0.0000
vn 0.6398 0.4895 0.5926
vn 0.7942 0.6076 -0.0000
vt 0.252636 0.015804
vt 0.797076 0.526018
vt 0.212852 0.483676
vt 0.035233 0.296643
vt 0.640177 0.868477
vt 0.726611 0.526018
vt 0.212852 0.328251
vt 0.408062 0.015804
vt 0.640177 0.713052
vt 0.201599 0.296643
vt 0.726611 0.666437
vt 0.408062 0.156224
vt 0.201599 0.156223
vt 0.252636 0.156223
vt 0.797076 0.666437
vt 0.035233 0.156223
vt 0.757709 0.021171
vt 0.580090 0.176596
vt 0.617290 0.015804
vt 0.835932 0.213571
vt 0.585681 0.411337
vt 0.957434 0.213571
vt 0.855360 0.213571
vt 0.439671 0.181962
vt 0.938006 0.213571
vt 0.262051 0.328251
vt 0.015804 0.526018
vt 0.371043 0.526018
vt 0.015805 0.494409
vt 0.906397 0.213571
vt 0.156224 0.531384
vt 0.445262 0.218937
vt 0.445262 0.374362
vt 0.617290 0.494409
vt 0.695002 0.681443
vt 0.585681 0.213571
vt 0.390471 0.526018
vt 0.193424 0.526018
vt 0.886969 0.213571
vt 0.835932 0.525738
vt 0.763300 0.181962
vt 0.855360 0.525738
vt 0.585681 0.015805
vt 0.580090 0.021171
vt 0.757709 0.176596
vt 0.585681 0.218937
vt 0.193424 0.531384
vt 0.804324 0.353990
vt 0.371043 0.838185
vt 0.161815 0.692175
vt 0.439670 0.379728
vt 0.390471 0.838185
vt 0.439671 0.213571
vt 0.390471 0.672028
vt 0.439671 0.176596
vt 0.262051 0.333617
vt 0.617290 0.021170
vt 0.585681 0.416703
vt 0.585681 0.374363
vt 0.193424 0.686809
vt 0.617290 0.353990
vt 0.161815 0.526018
vt 0.371043 0.672028
vt 0.855360 0.359581
vt 0.585681 0.181962
vt 0.763300 0.015805
vt 0.835932 0.359581
vt 0.439670 0.021170
vt 0.262051 0.489043
vt 0.617290 0.176596
vt 0.585681 0.572129
vt 0.585681 0.379729
vt 0.390471 0.984196
vt 0.193424 0.692175
vt 0.886969 0.671749
vt 0.015805 0.692175
vt 0.371043 0.984196
vt 0.015804 0.328251
vt 0.906397 0.671749
vt 0.855360 0.671749
vt 0.439670 0.015804
vt 0.938006 0.671749
vt 0.262051 0.494409
vt 0.835932 0.671749
vt 0.617290 0.181962
vt 0.957434 0.671749
vt 0.585681 0.577495
vt 0.212852 0.346685
vt 0.389628 0.015804
vt 0.271070 0.015804
vt 0.212852 0.465242
vt 0.058505 0.296643
vt 0.625972 0.850043
vt 0.625972 0.731486
vt 0.178327 0.296643
vt 0.178327 0.156223
vt 0.058505 0.156223
vt 0.389628 0.156223
vt 0.271070 0.156223
vt 0.390471 0.691735
vt 0.439671 0.233278
vt 0.439670 0.360021
vt 0.390471 0.818478
vt 0.161815 0.545725
vt 0.371043 0.691735
vt 0.371043 0.818478
vt 0.161815 0.672468
vt 0.585681 0.162255
vt 0.855360 0.379288
vt 0.855360 0.506032
vt 0.585681 0.035512
vt 0.763300 0.035512
vt 0.835932 0.379288
vt 0.835932 0.506031
vt 0.763300 0.162255
vt 0.193424 0.465242
vt 0.757709 0.158162
vt 0.580090 0.158162
vt 0.617290 0.663009
vt 0.695002 0.544452
vt 0.156224 0.668375
vt 0.659605 0.850043
vt 0.445262 0.355928
vt 0.330349 0.015804
vt 0.212852 0.405964
vt 0.617290 0.790764
vt 0.118416 0.296643
vt 0.118416 0.156223
vt 0.330349 0.156223
vt 0.390471 0.755107
vt 0.439671 0.296650
vt 0.371043 0.755107
vt 0.161815 0.609096
vt 0.585681 0.098883
vt 0.855360 0.442660
vt 0.763300 0.098883
vt 0.835932 0.442660
vt 0.757709 0.098883
vt 0.580090 0.098883
vt 0.156224 0.609096
vt 0.659605 0.790764
vt 0.216194 0.723784
vt 0.026430 0.723784
vt 0.100273 0.768939
vt 0.068664 0.815452
vt 0.184585 0.768939
vt 0.026430 0.815452
vt 0.216194 0.768939
vt 0.100273 0.723784
vt 0.068664 0.723784
vt 0.184585 0.723784
vt 0.226819 0.723784
vt 0.015804 0.723784
vt 0.058039 0.815452
vt 0.015804 0.815452
vt 0.226819 0.768939
vt 0.058039 0.723784
vt 0.015804 0.750136
vt 0.015804 0.788150
vt 0.026430 0.750136
vt 0.126624 0.768939
vt 0.026430 0.788150
vt 0.126624 0.730926
vt 0.659605 0.713052
vt 0.221028 0.296643
vt 0.221028 0.156223
vt 0.015804 0.156223
vt 0.015804 0.296643
vt 0.659605 0.868477
vt 0.659605 0.731486
vt 0.445262 0.237371
vt 0.445262 0.296650
vt 0.156224 0.686809
vt 0.015805 0.686809
vt 0.015804 0.333617
vt 0.015804 0.531384
vt 0.015805 0.489043
vt 0.804324 0.494409
vt 0.695002 0.526018
vt 0.695002 0.663009
vt 0.156224 0.549818
vt 0.695002 0.603730
vt 0.695002 0.494409
vt 0.617290 0.681443
vt 0.695002 0.353990
vt 0.726611 0.353990
vt 0.726611 0.494409
vt 0.617290 0.526018
vt 0.580090 0.039605
vt 0.617290 0.544452
vt 0.617290 0.603730
vt 0.746039 0.526018
vt 0.193424 0.328251
vt 0.746039 0.666437
vt 0.777648 0.666437
vt 0.777648 0.526018
vt 0.193424 0.483676
vt 0.193424 0.346685
vt 0.757709 0.039605
vt 0.193424 0.405964
vt 0.252636 0.296643
vt 0.797076 0.806856
vt 0.548992 0.764529
vt 0.035233 0.015804
vt 0.817796 0.015804
vt 0.726611 0.806856
vt 0.548992 0.609104
vt 0.408062 0.296643
vt 0.817796 0.171230
vt 0.201599 0.015804
vt 0.445262 0.416703
vt 0.402470 0.333618
vt 0.156224 0.489043
vt 0.333843 0.531384
vt 0.333843 0.686809
vt 0.617290 0.213571
vt 0.517383 0.609104
vt 0.957434 0.525738
vt 0.439670 0.577495
vt 0.938006 0.525738
vt 0.408062 0.494409
vt 0.402470 0.489043
vt 0.445262 0.572129
vt 0.906397 0.525738
vt 0.161815 0.328251
vt 0.339434 0.692175
vt 0.886969 0.525738
vt 0.339434 0.526018
vt 0.886969 0.359581
vt 0.161815 0.494409
vt 0.906397 0.359581
vt 0.938006 0.359581
vt 0.408062 0.328251
vt 0.439671 0.411337
vt 0.957434 0.359581
vt 0.548992 0.627538
vt 0.389628 0.296643
vt 0.271070 0.296643
vt 0.548992 0.746095
vt 0.058505 0.015804
vt 0.803591 0.034238
vt 0.803591 0.152796
vt 0.178327 0.015804
vt 0.886969 0.379288
vt 0.339434 0.545725
vt 0.339434 0.672468
vt 0.886969 0.506032
vt 0.161815 0.474702
vt 0.906397 0.379288
vt 0.906397 0.506032
vt 0.161815 0.347958
vt 0.408062 0.347958
vt 0.938006 0.379288
vt 0.938006 0.506031
vt 0.408062 0.474702
vt 0.439671 0.431044
vt 0.957434 0.379288
vt 0.957434 0.506032
vt 0.439670 0.557788
vt 0.568420 0.746095
vt 0.445262 0.553694
vt 0.402470 0.352052
vt 0.439670 0.627538
vt 0.517383 0.746095
vt 0.156224 0.352052
vt 0.837225 0.034238
vt 0.333843 0.668375
vt 0.330349 0.296643
vt 0.548992 0.686816
vt 0.794909 0.093517
vt 0.118416 0.015804
vt 0.886969 0.442660
vt 0.339434 0.609097
vt 0.906397 0.442660
vt 0.161815 0.411330
vt 0.408062 0.411330
vt 0.938006 0.442660
vt 0.439671 0.494416
vt 0.957434 0.442660
vt 0.445262 0.494416
vt 0.402470 0.411330
vt 0.156224 0.411330
vt 0.837225 0.093517
vt 0.058039 0.789100
vt 0.058039 0.751087
vt 0.068664 0.789100
vt 0.158233 0.768939
vt 0.068664 0.751087
vt 0.158233 0.730926
vt 0.837225 0.171230
vt 0.221028 0.015804
vt 0.015804 0.015804
vt 0.837225 0.015804
vt 0.837225 0.152796
vt 0.333843 0.549818
vt 0.333843 0.609097
vt 0.156224 0.333617
vt 0.804324 0.213571
vt 0.517383 0.764529
vt 0.517383 0.627538
vt 0.156224 0.470609
vt 0.517383 0.686816
vt 0.695002 0.213571
vt 0.439670 0.609104
vt 0.726611 0.213571
vt 0.439670 0.764529
vt 0.402470 0.470609
vt 0.439670 0.746095
vt 0.439670 0.686816
vt 0.746039 0.806856
vt 0.568420 0.609104
vt 0.777648 0.806856
vt 0.568420 0.764529
vt 0.568420 0.627538
vt 0.445262 0.435137
vt 0.568420 0.686816
s 1
f 89/170/1 44/94/2 4/9/3 85/164/4
f 87/167/5 8/16/6 2/4/7 88/168/8
f 46/97/9 43/92/10 2/4/7 8/16/6
f 42/90/11 48/99/12 7/14/13 1/1/14
f 85/165/4 4/10/3 6/13/15 86/166/16
f 3/6/17 106/192/4 107/194/16 5/11/18
f 16/33/19 30/59/19 37/72/20 26/51/21
f 103/189/19 21/44/19 20/43/21 54/111/22
f 9/17/12 29/57/12 11/19/13 34/66/14
f 99/183/4 17/34/4 31/61/16 100/185/16
f 52/106/11 50/103/22 26/52/21 25/49/17
f 23/46/19 15/32/19 27/53/23 18/36/24
f 7/15/13 108/195/5 109/196/8 1/2/14
f 64/123/19 16/33/19 26/51/21 50/102/22
f 111/199/12 9/17/12 34/66/14 55/112/11
f 56/114/11 54/110/22 20/42/21 19/40/17
f 101/186/5 24/48/5 95/178/8 102/187/8
f 11/20/13 12/23/24 33/64/23 34/67/14
f 93/174/12 92/173/12 25/50/17 38/76/18
f 41/88/11 110/198/1 106/193/4 3/7/17
f 14/31/12 94/176/12 13/27/13 32/62/14
f 13/28/13 18/37/24 27/54/23 32/63/14
f 25/49/17 26/52/21 37/73/20 38/77/18
f 60/119/1 96/180/1 17/35/4 99/184/4
f 19/40/17 20/42/21 39/80/20 40/84/18
f 97/181/12 14/31/12 32/62/14 51/104/11
f 36/70/12 22/45/12 19/41/17 40/85/18
f 28/55/19 10/18/19 33/65/23 12/24/24
f 21/44/19 35/68/19 39/81/20 20/43/21
f 92/173/12 62/121/12 52/107/11 25/50/17
f 75/140/12 97/181/12 51/104/11 70/133/11
f 102/188/8 95/179/8 61/120/1 104/190/1
f 105/191/1 98/182/1 96/180/1 60/119/1
f 1/3/14 109/197/8 57/116/1 42/91/11
f 65/125/11 112/200/1 110/198/1 41/88/11
f 34/67/14 33/64/23 53/109/22 55/113/11
f 72/137/11 71/135/22 54/110/22 56/114/11
f 22/45/12 58/117/12 56/115/11 19/41/17
f 73/138/12 111/199/12 55/112/11 72/136/11
f 15/32/19 90/171/19 49/101/22 27/53/23
f 91/172/19 64/123/19 50/102/22 69/131/22
f 32/63/14 27/54/23 49/100/22 51/105/11
f 70/132/11 69/130/22 50/103/22 52/106/11
f 10/18/19 59/118/19 53/108/22 33/65/23
f 74/139/19 103/189/19 54/111/22 71/134/22
f 3/8/17 5/12/18 47/98/12 41/89/11
f 65/124/11 68/129/12 48/99/12 42/90/11
f 6/13/15 4/10/3 44/95/2 45/96/25
f 67/128/19 66/127/26 43/92/10 46/97/9
f 88/169/8 2/5/7 43/93/10 63/122/1
f 76/141/1 66/126/26 44/94/2 89/170/1
f 63/122/1 43/93/10 66/126/26 76/141/1
f 45/96/25 44/95/2 66/127/26 67/128/19
f 41/89/11 47/98/12 68/129/12 65/124/11
f 59/118/19 74/139/19 71/134/22 53/108/22
f 51/105/11 49/100/22 69/130/22 70/132/11
f 90/171/19 91/172/19 69/131/22 49/101/22
f 58/117/12 73/138/12 72/136/11 56/115/11
f 55/113/11 53/109/22 71/135/22 72/137/11
f 42/91/11 57/116/1 112/200/1 65/125/11
f 104/190/1 61/120/1 98/182/1 105/191/1
f 62/121/12 75/140/12 70/133/11 52/107/11
f 80/155/27 82/159/28 84/162/29 78/147/30
f 79/152/31 80/156/27 78/148/30 77/142/32
f 81/158/11 79/153/31 77/143/32 83/160/14
f 81/158/11 83/160/14 84/162/29 82/159/28
f 77/144/32 78/149/30 84/163/29 83/161/14
f 169/294/33 167/290/34 116/209/35 136/242/36
f 87/167/5 168/292/37 114/204/38 8/16/6
f 46/97/9 8/16/6 114/204/38 135/240/39
f 134/238/40 113/201/41 7/14/13 48/99/12
f 167/291/34 86/166/16 6/13/15 116/210/35
f 115/206/42 5/11/18 107/194/16 182/310/34
f 121/215/19 128/226/43 37/74/20 30/60/19
f 179/307/19 142/255/44 124/221/43 125/222/19
f 117/211/12 132/234/41 11/21/13 29/58/12
f 177/303/34 100/185/16 31/61/16 122/216/34
f 140/250/40 127/224/42 128/227/43 138/247/44
f 23/47/19 18/38/24 129/228/45 120/214/19
f 7/15/13 113/202/41 183/312/37 108/195/5
f 152/267/19 138/246/44 128/226/43 121/215/19
f 185/315/12 143/256/40 132/234/41 117/211/12
f 144/258/40 123/218/42 124/220/43 142/254/44
f 101/186/5 178/305/37 173/298/37 24/48/5
f 11/22/13 132/235/41 131/232/45 12/25/24
f 93/175/12 38/78/18 127/225/42 172/297/12
f 133/236/40 115/207/42 182/311/34 184/314/33
f 119/213/12 130/230/41 13/29/13 94/177/12
f 13/30/13 130/231/41 129/229/45 18/39/24
f 127/224/42 38/79/18 37/75/20 128/227/43
f 148/263/33 177/304/34 122/217/34 174/300/33
f 123/218/42 40/86/18 39/82/20 124/220/43
f 175/301/12 139/248/40 130/230/41 119/213/12
f 36/71/12 40/87/18 123/219/42 126/223/12
f 28/56/19 12/26/24 131/233/45 118/212/19
f 125/222/19 124/221/43 39/83/20 35/69/19
f 172/297/12 127/225/42 140/251/40 150/265/12
f 161/282/12 156/275/40 139/248/40 175/301/12
f 178/306/37 180/308/33 149/264/33 173/299/37
f 181/309/33 148/263/33 174/300/33 176/302/33
f 113/203/41 134/239/40 145/260/33 183/313/37
f 153/269/40 133/236/40 184/314/33 186/316/33
f 132/235/41 143/257/40 141/253/44 131/232/45
f 158/279/40 144/258/40 142/254/44 157/277/44
f 126/223/12 123/219/42 144/259/40 146/261/12
f 159/280/12 158/278/40 143/256/40 185/315/12
f 120/214/19 129/228/45 137/245/44 170/295/19
f 171/296/19 155/273/44 138/246/44 152/267/19
f 130/231/41 139/249/40 137/244/44 129/229/45
f 156/274/40 140/250/40 138/247/44 155/272/44
f 118/212/19 131/233/45 141/252/44 147/262/19
f 160/281/19 157/276/44 142/255/44 179/307/19
f 115/208/42 133/237/40 47/98/12 5/12/18
f 153/268/40 134/238/40 48/99/12 68/129/12
f 6/13/15 45/96/25 136/243/36 116/210/35
f 67/128/19 46/97/9 135/240/39 154/271/46
f 168/293/37 151/266/33 135/241/39 114/205/38
f 162/283/33 169/294/33 136/242/36 154/270/46
f 151/266/33 162/283/33 154/270/46 135/241/39
f 45/96/25 67/128/19 154/271/46 136/243/36
f 133/237/40 153/268/40 68/129/12 47/98/12
f 147/262/19 141/252/44 157/276/44 160/281/19
f 139/249/40 156/274/40 155/272/44 137/244/44
f 170/295/19 137/245/44 155/273/44 171/296/19
f 146/261/12 144/259/40 158/278/40 159/280/12
f 143/257/40 158/279/40 157/277/44 141/253/44
f 134/239/40 153/269/40 186/316/33 145/260/33
f 180/308/33 181/309/33 176/302/33 149/264/33
f 150/265/12 140/251/40 156/275/40 161/282/12
f 80/157/27 78/150/30 166/288/47 164/285/48
f 163/284/40 165/286/41 77/145/32 79/154/31
f 163/284/40 164/285/48 166/288/47 165/286/41
f 77/146/32 165/287/41 166/289/47 78/151/30
