# Blender 3.4.1
# www.blender.org
o cloud_platform
v -0.987835 -0.104438 2.991578
v -0.980818 0.106755 2.987894
v -0.953097 -0.107251 -2.952446
v -1.044932 0.104490 -2.945060
v 0.949385 -0.109037 2.960378
v 0.950035 0.110984 3.025771
v 0.962029 -0.111623 -3.010818
v 0.991533 0.105442 -3.006943
v 0.515187 -0.099838 -2.983356
v -0.000949 -0.106109 -3.014551
v -0.477509 -0.106585 -2.911155
v -0.493471 0.104214 -2.997446
v -0.001364 0.105151 -3.001246
v 0.511049 0.105433 -2.989205
v -0.514767 -0.107479 2.965032
v 0.006286 -0.111707 3.047269
v 0.504316 -0.109517 3.058135
v 0.535560 0.106628 3.016745
v -0.042873 0.107321 2.981795
v -0.540423 0.106318 3.044492
v -0.971145 -0.104046 -2.572590
v -1.063781 -0.112535 -2.099127
v -1.008672 -0.102242 -1.626115
v -0.976922 -0.108682 -1.147155
v -0.935224 -0.103761 -0.619679
v -1.005009 -0.104045 -0.223760
v -0.997412 -0.104725 0.231326
v -1.056094 -0.100287 0.719245
v -1.009420 -0.102583 1.158985
v -0.962497 -0.106483 1.634968
v -1.000407 -0.105174 2.079308
v -1.036644 -0.106260 2.583991
v -0.964244 0.098557 2.526020
v -0.948829 0.108657 2.028098
v -1.006065 0.102617 1.630121
v -0.988937 0.107101 1.123366
v -0.994375 0.104236 0.702207
v -1.050501 0.103215 0.239660
v -1.004539 0.102724 -0.195545
v -1.000134 0.105340 -0.692327
v -0.944390 0.110528 -1.211400
v -0.999171 0.105337 -1.614161
v -0.969290 0.097995 -2.038716
v -0.936818 0.106641 -2.584057
v 1.060383 -0.101024 2.577654
v 1.031799 -0.101188 2.084674
v 0.950848 -0.105649 1.587372
v 0.963772 -0.100128 1.175559
v 1.000614 -0.102996 0.691351
v 1.063420 -0.102384 0.236280
v 1.034408 -0.103221 -0.179591
v 0.988610 -0.098584 -0.712524
v 1.038255 -0.111079 -1.109497
v 1.059091 -0.106353 -1.608431
v 1.001719 -0.105995 -2.163571
v 0.994799 -0.099229 -2.477265
v 1.002827 0.105272 -2.525562
v 0.953727 0.106058 -2.093891
v 0.997029 0.105212 -1.616860
v 0.984989 0.100281 -1.124437
v 0.998323 0.102066 -0.642469
v 1.058601 0.112691 -0.260364
v 1.052474 0.104004 0.230161
v 1.032015 0.098599 0.688050
v 1.066512 0.107398 1.184628
v 0.957776 0.104345 1.581757
v 1.004620 0.104538 2.059273
v 1.031448 0.103688 2.488458
v 0.514871 0.108275 -2.571916
v 0.545101 0.104984 -2.132681
v 0.538616 0.101900 -1.653590
v 0.501469 0.098056 -1.100794
v 0.533335 0.105792 -0.710156
v 0.509002 0.106332 -0.195360
v 0.469616 0.108215 0.241048
v 0.494432 0.105165 0.619719
v 0.450291 0.105228 1.151189
v 0.469995 0.112835 1.580011
v 0.458802 0.106539 2.110856
v 0.508472 0.107257 2.499228
v 0.015938 0.102214 -2.469690
v 0.004956 0.106091 -2.074726
v 0.085794 0.107753 -1.653746
v 0.009745 0.105648 -1.158751
v -0.036004 0.102216 -0.661767
v -0.082603 0.106749 -0.189164
v 0.002625 0.101627 0.200606
v 0.065033 0.106541 0.767223
v 0.011037 0.106728 1.176829
v 0.036581 0.106295 1.584276
v -0.012019 0.106001 2.085072
v 0.021708 0.104055 2.453742
v -0.496640 0.106057 -2.555012
v -0.521997 0.103794 -2.077939
v -0.497702 0.105033 -1.641911
v -0.500042 0.106279 -1.125546
v -0.495891 0.104241 -0.623958
v -0.524370 0.104279 -0.200894
v -0.518002 0.109826 0.257400
v -0.491403 0.095726 0.676084
v -0.524323 0.108943 1.202589
v -0.447429 0.109484 1.655670
v -0.517166 0.105964 2.088937
v -0.445924 0.103570 2.512633
v -0.524127 -0.106076 -2.540952
v -0.496761 -0.107566 -2.122516
v -0.519023 -0.099786 -1.580023
v -0.502865 -0.105030 -1.152453
v -0.505828 -0.107171 -0.693219
v -0.532364 -0.109277 -0.203844
v -0.442967 -0.107956 0.246648
v -0.433053 -0.103142 0.661470
v -0.511120 -0.104629 1.152464
v -0.528948 -0.111130 1.650678
v -0.492315 -0.103606 2.112386
v -0.488106 -0.108775 2.599816
v 0.010474 -0.105967 -2.544328
v -0.012402 -0.106702 -2.065392
v -0.055022 -0.104707 -1.590526
v 0.004803 -0.106467 -1.149494
v -0.006176 -0.105125 -0.706190
v -0.012093 -0.107414 -0.206561
v 0.000645 -0.105720 0.232235
v -0.004954 -0.105054 0.689143
v 0.042268 -0.097113 1.153044
v 0.016839 -0.102097 1.616293
v 0.010667 -0.101734 2.075141
v -0.022779 -0.102849 2.529146
v 0.555441 -0.104291 -2.580616
v 0.493796 -0.106327 -2.062769
v 0.579992 -0.105055 -1.557952
v 0.461029 -0.105589 -1.179434
v 0.529456 -0.111489 -0.730712
v 0.439754 -0.108869 -0.219195
v 0.496036 -0.105828 0.228208
v 0.507988 -0.105092 0.691491
v 0.512559 -0.104932 1.133777
v 0.508483 -0.107697 1.604141
v 0.494002 -0.105993 2.075691
v 0.432652 -0.105681 2.564285
vn -0.1085 -0.9941 -0.0034
vn -0.0893 0.9960 0.0024
vn -0.1266 0.9859 -0.1093
vn -0.1002 -0.9910 -0.0892
vn -0.0005 -0.9936 -0.1128
vn -0.0019 0.9946 -0.1039
vn 0.1040 0.9882 -0.1126
vn 0.0801 -0.9930 -0.0869
vn 0.1311 -0.9914 0.0047
vn 0.1176 0.9930 0.0054
vn 0.0942 0.9903 0.1022
vn 0.0828 -0.9932 0.0817
vn -0.0044 -0.9954 0.0956
vn -0.0065 0.9942 0.1073
vn -0.0965 0.9912 0.0908
vn -0.1119 -0.9874 0.1118
vn 0.0008 -1.0000 -0.0068
vn 0.0052 -0.9947 0.1030
vn -0.0024 1.0000 0.0002
vn -0.1185 0.9929 -0.0003
vn -0.0003 1.0000 -0.0019
vn 0.0021 0.9946 0.1041
vn -0.0022 1.0000 0.0001
vn -0.0052 0.9957 0.0926
vn -0.1148 -0.9934 -0.0020
vn 0.0007 -1.0000 -0.0044
vn 0.0006 -1.0000 -0.0071
vn -0.0026 -0.9953 0.0968
vn -0.0048 0.9937 -0.1122
vn -0.0061 -0.9958 -0.0911
vn -0.0052 0.9944 -0.1053
vn 0.0001 -0.9937 -0.1119
vn 0.0011 -1.0000 -0.0015
vn 0.0027 -1.0000 -0.0024
vn 0.0014 -1.0000 -0.0016
vn -0.0005 -1.0000 0.0020
vn -0.0021 -1.0000 -0.0018
vn -0.0029 -1.0000 0.0007
vn -0.0014 -1.0000 -0.0021
vn -0.0028 -1.0000 -0.0039
vn 0.0035 -1.0000 0.0006
vn -0.0024 -1.0000 -0.0025
vn 0.0031 -1.0000 0.0019
vn -0.0003 -1.0000 0.0009
vn 0.0030 -1.0000 0.0028
vn 0.0007 -1.0000 0.0040
vn 0.0011 -1.0000 0.0037
vn -0.0003 -1.0000 0.0060
vn -0.0016 -1.0000 -0.0010
vn -0.0010 -1.0000 -0.0010
vn -0.0023 -1.0000 -0.0024
vn 0.0006 -1.0000 -0.0026
vn -0.0004 -1.0000 0.0018
vn 0.0001 -1.0000 0.0008
vn 0.0007 -1.0000 -0.0021
vn 0.0015 -1.0000 0.0030
vn 0.0007 -1.0000 0.0010
vn 0.0003 -1.0000 -0.0047
vn -0.0008 -1.0000 -0.0014
vn -0.0030 -1.0000 -0.0009
vn -0.0018 -1.0000 0.0053
vn -0.0007 -1.0000 0.0052
vn 0.0020 -1.0000 -0.0050
vn 0.0033 -1.0000 -0.0006
vn 0.0036 -1.0000 0.0009
vn -0.1018 -0.9948 -0.0011
vn -0.1102 -0.9939 0.0109
vn -0.0952 -0.9955 -0.0015
vn -0.1039 -0.9946 -0.0057
vn -0.1188 -0.9929 -0.0080
vn -0.1033 -0.9946 0.0035
vn -0.1240 -0.9923 0.0058
vn -0.1123 -0.9937 -0.0024
vn -0.1012 -0.9949 0.0019
vn -0.1110 -0.9938 0.0002
vn -0.0001 1.0000 0.0013
vn -0.0017 1.0000 -0.0004
vn -0.0038 1.0000 -0.0007
vn -0.0003 1.0000 -0.0011
vn -0.0020 1.0000 -0.0048
vn 0.0043 1.0000 0.0018
vn 0.0028 1.0000 0.0021
vn 0.0045 1.0000 0.0020
vn 0.0014 1.0000 0.0023
vn 0.0008 1.0000 -0.0021
vn -0.0009 1.0000 -0.0026
vn -0.0005 1.0000 -0.0020
vn -0.0007 1.0000 0.0043
vn -0.0024 1.0000 0.0031
vn -0.0001 1.0000 -0.0010
vn -0.0025 1.0000 -0.0021
vn -0.0013 1.0000 -0.0061
vn -0.0014 1.0000 -0.0064
vn -0.0005 1.0000 0.0015
vn -0.0016 1.0000 0.0002
vn -0.0012 1.0000 0.0056
vn -0.0020 1.0000 0.0046
vn -0.0016 1.0000 -0.0002
vn -0.0004 1.0000 0.0019
vn 0.0022 1.0000 0.0051
vn 0.0035 1.0000 -0.0004
vn 0.0003 1.0000 -0.0085
vn -0.0031 1.0000 -0.0011
vn -0.0013 1.0000 0.0048
vn 0.0025 1.0000 0.0003
vn 0.0019 1.0000 -0.0053
vn 0.0007 1.0000 -0.0004
vn 0.0006 1.0000 0.0033
vn 0.1126 0.9936 0.0008
vn 0.0935 0.9956 0.0015
vn 0.0979 0.9952 0.0027
vn 0.1034 0.9946 0.0028
vn 0.1083 0.9940 -0.0167
vn 0.0959 0.9953 -0.0097
vn 0.1123 0.9936 0.0116
vn 0.1207 0.9927 0.0054
vn 0.1165 0.9932 0.0018
vn 0.1052 0.9944 0.0012
vn 0.1118 0.9937 -0.0073
vn -0.1185 0.9929 -0.0059
vn -0.1092 0.9940 -0.0014
vn -0.0863 0.9963 0.0030
vn -0.1089 0.9941 0.0001
vn -0.1097 0.9939 -0.0091
vn -0.1174 0.9931 0.0008
vn -0.0976 0.9952 0.0021
vn -0.0982 0.9952 -0.0025
vn -0.1266 0.9919 0.0042
vn -0.0920 0.9958 0.0032
vn 0.1222 -0.9925 -0.0012
vn 0.1004 -0.9949 -0.0074
vn 0.1123 -0.9937 -0.0062
vn 0.0980 -0.9952 0.0042
vn 0.1260 -0.9920 -0.0005
vn 0.1134 -0.9935 -0.0054
vn 0.1189 -0.9929 0.0057
vn 0.1045 -0.9945 0.0067
vn 0.1134 -0.9935 0.0054
vn 0.0979 -0.9952 -0.0010
vn 0.1195 -0.9928 -0.0077
vt 0.375000 1.000000
vt 0.125000 0.750000
vt 0.375000 0.000000
vt 0.625000 1.000000
vt 0.875000 0.750000
vt 0.625000 0.000000
vt 0.375000 0.250000
vt 0.125000 0.500000
vt 0.625000 0.250000
vt 0.875000 0.500000
vt 0.375000 0.750000
vt 0.625000 0.750000
vt 0.375000 0.500000
vt 0.625000 0.500000
vt 0.375000 0.437500
vt 0.312500 0.500000
vt 0.375000 0.375000
vt 0.250000 0.500000
vt 0.375000 0.312500
vt 0.187500 0.500000
vt 0.625000 0.312500
vt 0.812500 0.500000
vt 0.625000 0.375000
vt 0.750000 0.500000
vt 0.625000 0.437500
vt 0.687500 0.500000
vt 0.187500 0.750000
vt 0.375000 0.937500
vt 0.250000 0.750000
vt 0.375000 0.875000
vt 0.312500 0.750000
vt 0.375000 0.812500
vt 0.687500 0.750000
vt 0.625000 0.812500
vt 0.750000 0.750000
vt 0.625000 0.875000
vt 0.812500 0.750000
vt 0.625000 0.937500
vt 0.125000 0.519231
vt 0.375000 0.230769
vt 0.125000 0.538462
vt 0.375000 0.211538
vt 0.125000 0.557692
vt 0.375000 0.192308
vt 0.125000 0.576923
vt 0.375000 0.173077
vt 0.125000 0.596154
vt 0.375000 0.153846
vt 0.125000 0.615385
vt 0.375000 0.134615
vt 0.125000 0.634615
vt 0.375000 0.115385
vt 0.125000 0.653846
vt 0.375000 0.096154
vt 0.125000 0.673077
vt 0.375000 0.076923
vt 0.125000 0.692308
vt 0.375000 0.057692
vt 0.125000 0.711538
vt 0.375000 0.038462
vt 0.125000 0.730769
vt 0.375000 0.019231
vt 0.875000 0.730769
vt 0.625000 0.019231
vt 0.875000 0.711539
vt 0.625000 0.038462
vt 0.875000 0.692308
vt 0.625000 0.057692
vt 0.875000 0.673077
vt 0.625000 0.076923
vt 0.875000 0.653846
vt 0.625000 0.096154
vt 0.875000 0.634615
vt 0.625000 0.115385
vt 0.875000 0.615385
vt 0.625000 0.134615
vt 0.875000 0.596154
vt 0.625000 0.153846
vt 0.875000 0.576923
vt 0.625000 0.173077
vt 0.875000 0.557692
vt 0.625000 0.192308
vt 0.875000 0.538462
vt 0.625000 0.211538
vt 0.875000 0.519231
vt 0.625000 0.230769
vt 0.375000 0.730769
vt 0.375000 0.711539
vt 0.375000 0.692308
vt 0.375000 0.673077
vt 0.375000 0.653846
vt 0.375000 0.634615
vt 0.375000 0.615385
vt 0.375000 0.596154
vt 0.375000 0.576923
vt 0.375000 0.557692
vt 0.375000 0.538462
vt 0.375000 0.519231
vt 0.625000 0.519231
vt 0.625000 0.538462
vt 0.625000 0.557692
vt 0.625000 0.576923
vt 0.625000 0.596154
vt 0.625000 0.615385
vt 0.625000 0.634615
vt 0.625000 0.653846
vt 0.625000 0.673077
vt 0.625000 0.692308
vt 0.625000 0.711538
vt 0.625000 0.730769
vt 0.687500 0.519231
vt 0.687500 0.538462
vt 0.687500 0.557692
vt 0.687500 0.576923
vt 0.687500 0.596154
vt 0.687500 0.615385
vt 0.687500 0.634615
vt 0.687500 0.653846
vt 0.687500 0.673077
vt 0.687500 0.692308
vt 0.687500 0.711538
vt 0.687500 0.730769
vt 0.750000 0.519231
vt 0.750000 0.538462
vt 0.750000 0.557692
vt 0.750000 0.576923
vt 0.750000 0.596154
vt 0.750000 0.615385
vt 0.750000 0.634615
vt 0.750000 0.653846
vt 0.750000 0.673077
vt 0.750000 0.692308
vt 0.750000 0.711538
vt 0.750000 0.730769
vt 0.812500 0.519231
vt 0.812500 0.538462
vt 0.812500 0.557692
vt 0.812500 0.576923
vt 0.812500 0.596154
vt 0.812500 0.615385
vt 0.812500 0.634615
vt 0.812500 0.653846
vt 0.812500 0.673077
vt 0.812500 0.692308
vt 0.812500 0.711538
vt 0.812500 0.730769
vt 0.187500 0.519231
vt 0.187500 0.538462
vt 0.187500 0.557692
vt 0.187500 0.576923
vt 0.187500 0.596154
vt 0.187500 0.615385
vt 0.187500 0.634615
vt 0.187500 0.653846
vt 0.187500 0.673077
vt 0.187500 0.692308
vt 0.187500 0.711538
vt 0.187500 0.730769
vt 0.250000 0.519231
vt 0.250000 0.538462
vt 0.250000 0.557692
vt 0.250000 0.576923
vt 0.250000 0.596154
vt 0.250000 0.615385
vt 0.250000 0.634615
vt 0.250000 0.653846
vt 0.250000 0.673077
vt 0.250000 0.692308
vt 0.250000 0.711538
vt 0.250000 0.730769
vt 0.312500 0.519231
vt 0.312500 0.538462
vt 0.312500 0.557692
vt 0.312500 0.576923
vt 0.312500 0.596154
vt 0.312500 0.615385
vt 0.312500 0.634615
vt 0.312500 0.653846
vt 0.312500 0.673077
vt 0.312500 0.692308
vt 0.312500 0.711538
vt 0.312500 0.730769
s 1
f 21/40/1 44/86/2 4/9/3 3/7/4
f 9/15/5 14/25/6 8/14/7 7/13/8
f 45/87/9 68/110/10 6/12/11 5/11/12
f 15/28/13 20/38/14 2/4/15 1/1/16
f 140/182/17 45/87/9 5/11/12 17/31/18
f 104/146/19 33/63/20 2/5/15 20/37/14
f 68/110/10 80/122/21 18/33/22 6/12/11
f 80/122/21 92/134/23 19/35/24 18/33/22
f 92/134/23 104/146/19 20/37/14 19/35/24
f 32/61/25 116/158/26 15/27/13 1/2/16
f 116/158/26 128/170/27 16/29/28 15/27/13
f 128/170/27 140/182/17 17/31/18 16/29/28
f 5/11/12 6/12/11 18/34/22 17/32/18
f 17/32/18 18/34/22 19/36/24 16/30/28
f 16/30/28 19/36/24 20/38/14 15/28/13
f 3/7/4 4/9/3 12/21/29 11/19/30
f 11/19/30 12/21/29 13/23/31 10/17/32
f 10/17/32 13/23/31 14/25/6 9/15/5
f 10/18/32 9/16/5 129/171/33 117/159/34
f 117/159/34 129/171/33 130/172/35 118/160/36
f 118/160/36 130/172/35 131/173/37 119/161/38
f 119/161/38 131/173/37 132/174/39 120/162/40
f 120/162/40 132/174/39 133/175/41 121/163/42
f 121/163/42 133/175/41 134/176/43 122/164/44
f 122/164/44 134/176/43 135/177/45 123/165/46
f 123/165/46 135/177/45 136/178/47 124/166/48
f 124/166/48 136/178/47 137/179/49 125/167/50
f 125/167/50 137/179/49 138/180/51 126/168/52
f 126/168/52 138/180/51 139/181/53 127/169/54
f 127/169/54 139/181/53 140/182/17 128/170/27
f 11/20/30 10/18/32 117/159/34 105/147/55
f 105/147/55 117/159/34 118/160/36 106/148/56
f 106/148/56 118/160/36 119/161/38 107/149/57
f 107/149/57 119/161/38 120/162/40 108/150/58
f 108/150/58 120/162/40 121/163/42 109/151/59
f 109/151/59 121/163/42 122/164/44 110/152/60
f 110/152/60 122/164/44 123/165/46 111/153/61
f 111/153/61 123/165/46 124/166/48 112/154/62
f 112/154/62 124/166/48 125/167/50 113/155/63
f 113/155/63 125/167/50 126/168/52 114/156/64
f 114/156/64 126/168/52 127/169/54 115/157/65
f 115/157/65 127/169/54 128/170/27 116/158/26
f 3/8/4 11/20/30 105/147/55 21/39/1
f 21/39/1 105/147/55 106/148/56 22/41/66
f 22/41/66 106/148/56 107/149/57 23/43/67
f 23/43/67 107/149/57 108/150/58 24/45/68
f 24/45/68 108/150/58 109/151/59 25/47/69
f 25/47/69 109/151/59 110/152/60 26/49/70
f 26/49/70 110/152/60 111/153/61 27/51/71
f 27/51/71 111/153/61 112/154/62 28/53/72
f 28/53/72 112/154/62 113/155/63 29/55/73
f 29/55/73 113/155/63 114/156/64 30/57/74
f 30/57/74 114/156/64 115/157/65 31/59/75
f 31/59/75 115/157/65 116/158/26 32/61/25
f 13/24/31 12/22/29 93/135/76 81/123/77
f 81/123/77 93/135/76 94/136/78 82/124/79
f 82/124/79 94/136/78 95/137/80 83/125/81
f 83/125/81 95/137/80 96/138/82 84/126/83
f 84/126/83 96/138/82 97/139/84 85/127/85
f 85/127/85 97/139/84 98/140/86 86/128/87
f 86/128/87 98/140/86 99/141/88 87/129/89
f 87/129/89 99/141/88 100/142/90 88/130/91
f 88/130/91 100/142/90 101/143/92 89/131/93
f 89/131/93 101/143/92 102/144/94 90/132/95
f 90/132/95 102/144/94 103/145/96 91/133/97
f 91/133/97 103/145/96 104/146/19 92/134/23
f 14/26/6 13/24/31 81/123/77 69/111/98
f 69/111/98 81/123/77 82/124/79 70/112/99
f 70/112/99 82/124/79 83/125/81 71/113/100
f 71/113/100 83/125/81 84/126/83 72/114/101
f 72/114/101 84/126/83 85/127/85 73/115/102
f 73/115/102 85/127/85 86/128/87 74/116/103
f 74/116/103 86/128/87 87/129/89 75/117/104
f 75/117/104 87/129/89 88/130/91 76/118/105
f 76/118/105 88/130/91 89/131/93 77/119/106
f 77/119/106 89/131/93 90/132/95 78/120/107
f 78/120/107 90/132/95 91/133/97 79/121/108
f 79/121/108 91/133/97 92/134/23 80/122/21
f 8/14/7 14/26/6 69/111/98 57/99/109
f 57/99/109 69/111/98 70/112/99 58/100/110
f 58/100/110 70/112/99 71/113/100 59/101/111
f 59/101/111 71/113/100 72/114/101 60/102/112
f 60/102/112 72/114/101 73/115/102 61/103/113
f 61/103/113 73/115/102 74/116/103 62/104/114
f 62/104/114 74/116/103 75/117/104 63/105/115
f 63/105/115 75/117/104 76/118/105 64/106/116
f 64/106/116 76/118/105 77/119/106 65/107/117
f 65/107/117 77/119/106 78/120/107 66/108/118
f 66/108/118 78/120/107 79/121/108 67/109/119
f 67/109/119 79/121/108 80/122/21 68/110/10
f 12/22/29 4/10/3 44/85/2 93/135/76
f 93/135/76 44/85/2 43/83/120 94/136/78
f 94/136/78 43/83/120 42/81/121 95/137/80
f 95/137/80 42/81/121 41/79/122 96/138/82
f 96/138/82 41/79/122 40/77/123 97/139/84
f 97/139/84 40/77/123 39/75/124 98/140/86
f 98/140/86 39/75/124 38/73/125 99/141/88
f 99/141/88 38/73/125 37/71/126 100/142/90
f 100/142/90 37/71/126 36/69/127 101/143/92
f 101/143/92 36/69/127 35/67/128 102/144/94
f 102/144/94 35/67/128 34/65/129 103/145/96
f 103/145/96 34/65/129 33/63/20 104/146/19
f 9/16/5 7/13/8 56/98/130 129/171/33
f 129/171/33 56/98/130 55/97/131 130/172/35
f 130/172/35 55/97/131 54/96/132 131/173/37
f 131/173/37 54/96/132 53/95/133 132/174/39
f 132/174/39 53/95/133 52/94/134 133/175/41
f 133/175/41 52/94/134 51/93/135 134/176/43
f 134/176/43 51/93/135 50/92/136 135/177/45
f 135/177/45 50/92/136 49/91/137 136/178/47
f 136/178/47 49/91/137 48/90/138 137/179/49
f 137/179/49 48/90/138 47/89/139 138/180/51
f 138/180/51 47/89/139 46/88/140 139/181/53
f 139/181/53 46/88/140 45/87/9 140/182/17
f 7/13/8 8/14/7 57/99/109 56/98/130
f 56/98/130 57/99/109 58/100/110 55/97/131
f 55/97/131 58/100/110 59/101/111 54/96/132
f 54/96/132 59/101/111 60/102/112 53/95/133
f 53/95/133 60/102/112 61/103/113 52/94/134
f 52/94/134 61/103/113 62/104/114 51/93/135
f 51/93/135 62/104/114 63/105/115 50/92/136
f 50/92/136 63/105/115 64/106/116 49/91/137
f 49/91/137 64/106/116 65/107/117 48/90/138
f 48/90/138 65/107/117 66/108/118 47/89/139
f 47/89/139 66/108/118 67/109/119 46/88/140
f 46/88/140 67/109/119 68/110/10 45/87/9
f 1/3/16 2/6/15 33/64/20 32/62/25
f 32/62/25 33/64/20 34/66/129 31/60/75
f 31/60/75 34/66/129 35/68/128 30/58/74
f 30/58/74 35/68/128 36/70/127 29/56/73
f 29/56/73 36/70/127 37/72/126 28/54/72
f 28/54/72 37/72/126 38/74/125 27/52/71
f 27/52/71 38/74/125 39/76/124 26/50/70
f 26/50/70 39/76/124 40/78/123 25/48/69
f 25/48/69 40/78/123 41/80/122 24/46/68
f 24/46/68 41/80/122 42/82/121 23/44/67
f 23/44/67 42/82/121 43/84/120 22/42/66
f 22/42/66 43/84/120 44/86/2 21/40/1
