# Blender 3.4.1
# www.blender.org
o couch
v 2.876371 0.000000 -1.049229
v 2.713271 1.896914 -1.049229
v 2.876371 0.000000 -0.398076
v -0.000000 0.619002 -0.398075
v -0.000000 1.000000 -1.049228
v 2.876371 1.000000 -1.049229
v -0.000000 0.000000 -0.537427
v -0.000000 0.000000 -1.049228
v -0.000000 2.465347 -1.049228
v 2.876372 0.000000 1.858682
v 0.000001 0.619002 1.814287
v 0.000001 0.000000 1.814287
v 1.540413 0.000000 -0.398075
v 1.540412 1.000000 -1.049228
v 1.540412 2.478653 -1.049228
v 1.540412 0.000000 -1.049228
v 1.540413 0.000000 1.858682
v 2.208393 1.795053 1.858682
v 2.621227 1.666167 1.858682
v 2.876371 1.328742 1.858682
v 2.876372 1.000000 -0.398076
v 2.876372 1.000000 1.858682
v 1.540413 0.619002 1.858682
v 1.540413 1.328742 1.858682
v 1.795559 1.666168 -0.398075
v 1.795559 1.666167 1.858682
v 2.453076 2.201514 -0.398075
v -0.000000 2.465347 -0.398075
v 2.453076 2.201514 -1.049228
v 1.540413 2.478653 -0.398075
v 2.713271 1.896914 -0.398075
v 1.996744 2.347702 -1.049228
v 1.996745 2.347702 -0.398075
v 0.770206 0.000000 -1.049228
v 0.770206 0.000000 -0.467751
v 0.770206 1.000000 -1.049228
v 0.770206 2.500446 -1.049228
v 0.770207 0.000000 1.836485
v 0.770207 0.619002 1.836484
v 0.770207 0.619002 -0.398075
v 0.770207 2.500446 -0.398075
v 2.208392 0.000000 -0.398075
v 2.208392 1.000000 -1.049228
v 2.208393 0.000000 1.858682
v 2.208392 0.000000 -1.049228
v 2.208393 1.000000 1.858682
v 0.000001 0.612042 1.777033
v 1.520695 0.612042 1.819918
v 0.770207 0.612042 1.798475
v 0.770207 1.149748 -0.360067
v -0.000000 1.149748 -0.360067
v 0.770207 1.149748 1.683127
v 0.770207 1.034446 1.798475
v 1.405393 1.149748 -0.360067
v 1.520695 1.034446 -0.360067
v 1.520695 1.034446 1.819918
v 1.405393 1.149748 1.701275
v 0.000001 1.034446 1.777033
v 0.000001 1.149748 1.661685
v 2.876371 1.328742 -1.049229
v 2.208392 1.795053 -0.398075
v 2.621227 1.666168 -0.398075
v 2.876372 1.328742 -0.398075
v 1.540413 0.619002 -0.398075
v 1.540413 1.328742 -0.398075
v -2.876371 0.000000 -1.049227
v -2.713271 1.896914 -1.049227
v -2.876371 0.000000 -0.398074
v -2.876371 1.000000 -1.049227
v -2.876370 0.000000 1.858684
v -1.540413 0.000000 -0.398074
v -1.540413 1.000000 -1.049227
v -1.540413 2.478653 -1.049227
v -1.540413 0.000000 -1.049227
v -1.540412 0.000000 1.858683
v -2.208393 1.795053 -0.398075
v -2.208391 1.795053 1.858683
v -2.621227 1.666168 -0.398075
v -2.621225 1.666167 1.858683
v -2.876370 1.328742 1.858684
v -2.876372 1.000000 -0.398074
v -2.876370 1.000000 1.858684
v -1.540412 0.619002 1.858683
v -1.540412 1.328742 1.858683
v -1.795559 1.666168 -0.398075
v -1.795557 1.666167 1.858683
v -2.453076 2.201514 -0.398075
v -2.453076 2.201514 -1.049227
v -1.540413 2.478653 -0.398075
v -2.713272 1.896914 -0.398075
v -1.996745 2.347702 -1.049227
v -1.996745 2.347702 -0.398075
v -0.770207 0.000000 -1.049228
v -0.770207 0.000000 -0.467750
v -0.770207 1.000000 -1.049228
v -0.770207 2.500446 -1.049228
v -0.770206 0.000000 1.836485
v -0.770206 0.619002 1.836485
v -0.770207 0.619002 -0.398075
v -0.770207 2.500446 -0.398075
v -2.208392 0.000000 -0.398074
v -2.208392 1.000000 -1.049227
v -2.208391 0.000000 1.858683
v -2.208392 0.000000 -1.049227
v -2.208391 1.000000 1.858683
v -1.520694 0.612042 1.819919
v -0.770206 0.612042 1.798476
v -0.770207 1.149748 -0.360066
v -0.770206 1.149748 1.683128
v -0.770206 1.034446 1.798476
v -1.405393 1.149748 -0.360066
v -1.520695 1.034446 -0.360066
v -1.520694 1.034446 1.819919
v -1.405392 1.149748 1.701276
v -2.876371 1.328742 -1.049227
v -2.876372 1.328742 -0.398075
v -1.540413 0.619002 -0.398075
v -1.540413 1.328742 -0.398075
v -0.770207 1.328743 -0.398075
v -0.000000 1.328742 -0.398075
v 0.770207 1.328742 -0.398075
vn -0.0000 0.7071 0.7071
vn -0.3741 0.6558 0.6558
vn -0.3307 0.6735 0.6611
vn -0.0204 0.7071 0.7068
vn -0.2100 -0.9777 -0.0000
vn -0.3307 -0.6735 0.6611
vn 0.4207 0.6324 0.6504
vn 0.6599 0.3547 0.6623
vn 0.6599 0.3547 -0.6623
vn 0.4207 0.6324 -0.6504
vn -0.0000 -0.7071 -0.7071
vn -0.0000 -0.0000 -1.0000
vn 0.7071 -0.0000 -0.7071
vn 0.5773 -0.5774 -0.5774
vn -0.0204 -0.7071 0.7068
vn 1.0000 -0.0000 -0.0000
vn 0.7071 -0.7071 -0.0000
vn -0.0000 -1.0000 -0.0000
vn 0.5774 -0.5774 0.5774
vn -0.0000 -0.7071 0.7071
vn 0.7071 -0.0000 0.7071
vn -0.0102 -0.7039 0.7102
vn -0.0062 0.7152 0.6989
vn 0.1124 0.7246 0.6800
vn 0.1124 0.7246 -0.6800
vn -0.0062 0.7152 -0.6989
vn -0.0000 -0.0000 1.0000
vn -0.3099 0.2957 0.9036
vn -0.0000 0.6249 0.7807
vn -0.0000 0.7635 0.6458
vn 0.4399 0.6255 0.6444
vn 0.3581 0.5090 0.7827
vn 0.7269 0.2439 0.6420
vn 0.9719 0.2273 0.0606
vn -0.7269 0.2439 0.6420
vn -0.4399 0.6255 0.6444
vn -0.5774 0.5774 0.5774
vn -0.5859 0.1966 0.7862
vn -0.3581 0.5090 0.7827
vn 0.2064 0.6799 0.7037
vn 0.2064 0.6799 -0.7037
vn 0.7288 0.1025 -0.6771
vn -0.0000 0.6966 -0.7175
vn -0.0000 0.6966 0.7175
vn -0.0282 -0.0000 0.9996
vn -0.0260 0.3827 0.9235
vn -0.0000 0.3852 0.9228
vn -0.0286 -0.0000 0.9996
vn 0.2254 0.4986 0.8370
vn -0.0000 1.0000 -0.0000
vn -0.0000 0.9263 0.3768
vn -0.0108 0.9239 0.3825
vn 0.2944 0.9064 0.3029
vn 0.7071 0.7071 -0.0000
vn 0.3827 0.9239 -0.0000
vn 0.0204 0.7071 0.7068
vn -0.4207 0.6324 0.6504
vn -0.4207 0.6324 -0.6504
vn -0.6599 0.3547 -0.6623
vn -0.6599 0.3547 0.6623
vn -0.5774 -0.5774 -0.5774
vn -0.7071 -0.0000 -0.7071
vn 0.0204 -0.7071 0.7068
vn -0.7071 -0.7071 -0.0000
vn -1.0000 -0.0000 -0.0000
vn -0.5773 -0.5774 0.5774
vn -0.7071 -0.0000 0.7071
vn 0.0102 -0.7039 0.7102
vn 0.0062 0.7152 0.6989
vn 0.0062 0.7152 -0.6989
vn -0.1124 0.7246 -0.6800
vn -0.1124 0.7246 0.6800
vn 0.3099 0.2957 0.9036
vn -0.9719 0.2273 0.0606
vn 0.5774 0.5774 0.5774
vn 0.5859 0.1966 0.7862
vn -0.2064 0.6799 0.7037
vn -0.2064 0.6799 -0.7037
vn -0.7288 0.1025 -0.6771
vn 0.0260 0.3827 0.9235
vn 0.0282 -0.0000 0.9996
vn -0.2254 0.4986 0.8370
vn 0.0286 -0.0000 0.9996
vn 0.0108 0.9239 0.3825
vn -0.2944 0.9064 0.3029
vn -0.3827 0.9239 -0.0000
vn -0.7071 0.7071 -0.0000
vt 0.724684 0.013761
vt 0.243100 0.013761
vt 0.499960 0.467464
vt 0.243100 0.165175
vt 0.575080 0.026624
vt 0.191745 0.013761
vt 0.448605 0.467464
vt 0.824586 0.711832
vt 0.270621 0.780896
vt 0.675576 0.533847
vt 0.752205 0.240612
vt 0.645817 0.240612
vt 0.243100 0.092628
vt 0.645817 0.013760
vt 0.319440 0.769906
vt 0.459596 0.240612
vt 0.499960 0.240612
vt 0.724684 0.240612
vt 0.530249 0.240612
vt 0.243100 0.393579
vt 0.270621 0.467464
vt 0.013761 0.013761
vt 0.817148 0.966255
vt 0.824586 0.537349
vt 0.270621 0.955379
vt 0.768329 0.739353
vt 0.675577 0.708331
vt 0.893488 0.739353
vt 0.319440 0.955379
vt 0.817148 0.739353
vt 0.844669 0.739353
vt 0.274122 0.240612
vt 0.448605 0.362100
vt 0.645817 0.119124
vt 0.243100 0.272003
vt 0.529199 0.119124
vt 0.499960 0.362100
vt 0.724684 0.119124
vt 0.817148 0.860891
vt 0.270621 0.362100
vt 0.675577 0.913573
vt 0.470071 0.832752
vt 0.470071 0.798643
vt 0.685741 0.946132
vt 0.470071 0.765280
vt 0.712353 0.966255
vt 0.648056 0.739353
vt 0.191745 0.092628
vt 0.013761 0.092628
vt 0.470071 0.739353
vt 0.738280 0.966255
vt 0.470071 0.956199
vt 0.768329 0.860891
vt 0.946074 0.533847
vt 0.470071 0.900224
vt 0.712353 0.860891
vt 0.648056 0.866861
vt 0.834792 0.099001
vt 0.470071 0.866861
vt 0.685741 0.881014
vt 0.191745 0.196769
vt 0.877014 0.047145
vt 0.191745 0.393579
vt 0.897822 0.240612
vt 0.243100 0.196769
vt 0.551057 0.047145
vt 0.191745 0.272003
vt 0.898871 0.119124
vt 0.191745 0.165175
vt 0.852991 0.026624
vt 0.243100 0.234560
vt 0.539527 0.083134
vt 0.191745 0.234560
vt 0.888543 0.083134
vt 0.724684 0.179868
vt 0.499960 0.301356
vt 0.454100 0.301356
vt 0.645817 0.179868
vt 0.527481 0.179868
vt 0.243100 0.332771
vt 0.272371 0.301356
vt 0.817148 0.800122
vt 0.768329 0.800122
vt 0.885330 0.535598
vt 0.752205 0.179868
vt 0.885330 0.711832
vt 0.191745 0.332771
vt 0.900590 0.179868
vt 0.448605 0.414782
vt 0.645817 0.066442
vt 0.817148 0.913573
vt 0.270621 0.414782
vt 0.499960 0.414782
vt 0.724684 0.066442
vt 0.738280 0.913573
vt 0.974529 0.133909
vt 0.975470 0.253741
vt 0.974914 0.194688
vt 0.270621 0.679429
vt 0.270621 0.618685
vt 0.928838 0.194856
vt 0.431762 0.679429
vt 0.941675 0.194977
vt 0.270621 0.729524
vt 0.270621 0.742385
vt 0.942247 0.254058
vt 0.442550 0.742385
vt 0.929328 0.244850
vt 0.433193 0.729524
vt 0.941041 0.133909
vt 0.430071 0.618685
vt 0.928110 0.133909
vt 0.243100 0.118555
vt 0.619890 0.013760
vt 0.648056 0.832752
vt 0.844957 0.066442
vt 0.648056 0.798643
vt 0.834792 0.033883
vt 0.648056 0.765280
vt 0.191745 0.118555
vt 0.808181 0.013760
vt 0.648056 0.956199
vt 0.752205 0.119124
vt 0.946074 0.711832
vt 0.648056 0.900224
vt 0.808181 0.119124
vt 0.724684 0.467464
vt 0.243100 0.773396
vt 0.499960 0.013760
vt 0.243100 0.621982
vt 0.575080 0.454601
vt 0.191745 0.773396
vt 0.448605 0.013760
vt 0.243100 0.694529
vt 0.645817 0.467464
vt 0.270621 0.013761
vt 0.013761 0.773397
vt 0.844669 0.966255
vt 0.448605 0.119124
vt 0.645817 0.362101
vt 0.243100 0.515154
vt 0.529199 0.362100
vt 0.499960 0.119124
vt 0.724684 0.362100
vt 0.844669 0.860891
vt 0.270621 0.119124
vt 0.470071 0.588384
vt 0.844957 0.414782
vt 0.986240 0.913573
vt 0.648056 0.588384
vt 0.470071 0.554275
vt 0.834792 0.447341
vt 0.648056 0.554275
vt 0.976075 0.946132
vt 0.648056 0.520912
vt 0.949463 0.966255
vt 0.470071 0.494985
vt 0.191745 0.694529
vt 0.013760 0.694529
vt 0.648056 0.494985
vt 0.923536 0.966255
vt 0.648056 0.711832
vt 0.893488 0.860891
vt 0.797065 0.711832
vt 0.648056 0.655856
vt 0.949463 0.860891
vt 0.470071 0.622493
vt 0.834792 0.382223
vt 0.648056 0.622493
vt 0.976075 0.881014
vt 0.191745 0.590388
vt 0.877014 0.434080
vt 0.243100 0.590388
vt 0.551057 0.434080
vt 0.191745 0.515154
vt 0.898871 0.362101
vt 0.191745 0.621982
vt 0.852991 0.454601
vt 0.243100 0.552597
vt 0.539527 0.398090
vt 0.191745 0.552597
vt 0.888543 0.398090
vt 0.724684 0.301356
vt 0.499960 0.179868
vt 0.454100 0.179868
vt 0.645817 0.301356
vt 0.527481 0.301356
vt 0.243100 0.454386
vt 0.272371 0.179868
vt 0.844669 0.800122
vt 0.893488 0.800122
vt 0.736321 0.710081
vt 0.736321 0.533847
vt 0.752205 0.301357
vt 0.191745 0.454386
vt 0.900590 0.301357
vt 0.448605 0.066442
vt 0.645817 0.414782
vt 0.844669 0.913573
vt 0.270621 0.066442
vt 0.499960 0.066442
vt 0.724684 0.414782
vt 0.923536 0.913573
vt 0.975470 0.014078
vt 0.974914 0.073131
vt 0.270621 0.557941
vt 0.928838 0.072963
vt 0.431762 0.557941
vt 0.941675 0.072841
vt 0.270621 0.507845
vt 0.270621 0.494985
vt 0.942247 0.013760
vt 0.442550 0.494985
vt 0.929328 0.022969
vt 0.433193 0.507845
vt 0.243100 0.668602
vt 0.619890 0.467464
vt 0.470071 0.520912
vt 0.191745 0.668602
vt 0.808181 0.467464
vt 0.470071 0.711832
vt 0.797065 0.533847
vt 0.752205 0.362101
vt 0.470071 0.655856
vt 0.808181 0.362101
vt 0.808181 0.301357
vt 0.808181 0.240612
vt 0.808181 0.179868
s 1
f 40/86/1 4/8/2 11/24/3 39/84/4
f 4/9/2 7/15/5 12/29/6 11/25/3
f 27/61/7 31/69/8 2/4/9 29/65/10
f 45/94/11 43/90/12 6/14/13 1/1/14
f 38/82/15 39/83/4 11/26/3 12/30/6
f 1/2/14 6/13/13 21/48/16 3/6/17
f 35/77/18 7/16/5 8/17/11 34/76/11
f 42/89/18 3/7/17 10/21/19 44/92/20
f 3/6/17 21/48/16 22/49/21 10/22/19
f 42/89/18 13/33/18 16/37/11 45/93/11
f 35/77/18 13/33/18 17/40/22 38/81/15
f 34/75/11 36/78/12 14/34/12 16/38/11
f 41/87/23 30/67/24 15/35/25 37/80/26
f 44/91/20 46/95/27 23/53/28 17/39/22
f 61/115/29 18/42/30 19/43/31 62/117/32
f 62/117/32 19/43/31 20/45/33 63/119/34
f 63/119/34 20/45/33 22/50/21 21/47/16
f 24/56/35 23/53/28 46/95/27
f 22/51/21 20/46/33 46/95/27
f 19/44/31 18/41/30 46/95/27
f 18/41/30 26/60/36 46/95/27
f 64/122/37 23/52/28 24/55/35 65/125/38
f 20/46/33 19/44/31 46/95/27
f 65/125/38 24/55/35 26/59/36 25/57/39
f 25/57/39 26/59/36 18/42/30 61/115/29
f 26/60/36 24/56/35 46/95/27
f 33/73/40 27/61/7 29/65/10 32/71/41
f 36/78/12 37/79/26 15/36/25 14/34/12
f 40/85/1 121/228/27 120/227/27 4/11/2
f 60/113/42 2/4/9 31/69/8 63/120/34
f 30/67/24 33/73/40 32/71/41 15/35/25
f 64/123/37 65/126/38 121/228/27 40/85/1
f 5/12/12 9/19/43 37/79/26 36/78/12
f 28/63/44 41/87/23 37/80/26 9/20/43
f 8/18/11 5/12/12 36/78/12 34/75/11
f 7/16/5 35/77/18 38/81/15 12/32/6
f 13/33/18 35/77/18 34/76/11 16/37/11
f 17/39/22 23/53/28 39/83/4 38/82/15
f 64/124/37 40/86/1 39/84/4 23/54/28
f 10/23/19 22/51/21 46/95/27 44/91/20
f 3/7/17 42/89/18 45/93/11 1/3/14
f 13/33/18 42/89/18 44/92/20 17/40/22
f 16/38/11 14/34/12 43/90/12 45/94/11
f 47/96/27 49/98/45 53/103/46 58/110/47
f 49/98/45 48/97/48 56/106/49 53/103/46
f 50/99/50 51/100/50 59/111/51 52/102/52
f 57/108/53 52/101/52 53/103/46 56/106/49
f 56/107/49 55/105/54 54/104/55 57/109/53
f 52/101/52 59/112/51 58/110/47 53/103/46
f 54/104/55 50/99/50 52/102/52 57/109/53
f 30/68/24 65/126/38 25/58/39 33/74/40
f 25/58/39 61/116/29 27/62/7 33/74/40
f 61/116/29 62/118/32 31/70/8 27/62/7
f 6/13/13 60/113/42 63/120/34 21/48/16
f 63/121/34 31/70/8 62/118/32
f 14/34/12 15/36/25 32/72/41 43/90/12
f 6/14/13 43/90/12 32/72/41 29/66/10 2/5/9 60/114/42
f 41/88/23 65/126/38 30/68/24
f 99/193/1 98/192/56 11/27/3 4/10/2
f 87/171/57 88/173/58 67/130/59 90/177/60
f 104/202/11 66/127/61 69/135/62 102/198/12
f 97/190/63 12/31/6 11/28/3 98/191/56
f 66/128/61 68/132/64 81/158/65 69/134/62
f 94/185/18 93/184/11 8/17/11 7/16/5
f 101/197/18 103/200/20 70/136/66 68/133/64
f 68/132/64 70/137/66 82/159/67 81/158/65
f 101/197/18 104/201/11 74/143/11 71/139/18
f 94/185/18 97/189/63 75/146/68 71/139/18
f 93/183/11 74/144/11 72/140/12 95/186/12
f 100/195/69 96/188/70 73/141/71 89/175/72
f 103/199/20 75/145/68 83/163/73 105/203/27
f 76/147/29 78/151/39 79/153/36 77/150/30
f 78/151/39 116/218/74 80/155/35 79/153/36
f 116/218/74 81/157/65 82/160/67 80/155/35
f 84/166/33 105/203/27 83/163/73
f 82/161/67 105/203/27 80/156/35
f 79/154/36 105/203/27 77/149/30
f 77/149/30 105/203/27 86/170/31
f 117/221/75 118/224/76 84/165/33 83/162/73
f 80/156/35 105/203/27 79/154/36
f 118/224/76 85/167/32 86/169/31 84/165/33
f 85/167/32 76/147/29 77/150/30 86/169/31
f 86/170/31 105/203/27 84/166/33
f 92/181/77 91/179/78 88/173/58 87/171/57
f 95/186/12 72/140/12 73/142/71 96/187/70
f 99/194/1 4/11/2 120/227/27 119/226/27
f 115/216/79 116/219/74 90/177/60 67/130/59
f 89/175/72 73/141/71 91/179/78 92/181/77
f 5/12/12 95/186/12 96/187/70 9/19/43
f 28/63/44 9/20/43 96/188/70 100/195/69
f 8/18/11 93/183/11 95/186/12 5/12/12
f 7/16/5 12/32/6 97/189/63 94/185/18
f 71/139/18 74/143/11 93/184/11 94/185/18
f 75/145/68 97/190/63 98/191/56 83/163/73
f 117/222/75 83/164/73 98/192/56 99/193/1
f 70/138/66 103/199/20 105/203/27 82/161/67
f 68/133/64 66/129/61 104/201/11 101/197/18
f 71/139/18 75/146/68 103/200/20 101/197/18
f 74/144/11 104/202/11 102/198/12 72/140/12
f 47/96/27 58/110/47 110/209/80 107/205/81
f 107/205/81 110/209/80 113/212/82 106/204/83
f 108/206/50 109/208/84 59/111/51 51/100/50
f 114/214/85 113/212/82 110/209/80 109/207/84
f 113/213/82 114/215/85 111/210/86 112/211/87
f 109/207/84 110/209/80 58/110/47 59/112/51
f 111/210/86 114/215/85 109/208/84 108/206/50
f 89/176/72 92/182/77 85/168/32 118/225/76
f 85/168/32 92/182/77 87/172/57 76/148/29
f 76/148/29 87/172/57 90/178/60 78/152/39
f 69/134/62 81/158/65 116/219/74 115/216/79
f 116/220/74 78/152/39 90/178/60
f 72/140/12 102/198/12 91/180/78 73/142/71
f 69/135/62 115/217/79 67/131/59 88/174/58 91/180/78 102/198/12
f 100/196/69 89/176/72 118/225/76 119/226/27
f 119/226/27 118/225/76 117/223/75 99/194/1
f 121/228/27 65/126/38 41/88/23
f 120/227/27 121/228/27 41/88/23 28/64/44
f 119/226/27 120/227/27 28/64/44 100/196/69
l 21 64
l 81 117
