# Blender 3.4.1
# www.blender.org
o ladder_segment
v -0.000000 -1.000000 -1.081596
v -0.000000 1.000000 -1.081596
v 0.111645 -1.000000 -1.035351
v 0.111645 1.000000 -1.035351
v 0.157889 -1.000000 -0.923707
v 0.157889 1.000000 -0.923707
v 0.111645 -1.000000 -0.812062
v 0.111645 1.000000 -0.812062
v -0.000000 -1.000000 -0.765817
v -0.000000 1.000000 -0.765817
v -0.111645 -1.000000 -0.812062
v -0.111645 1.000000 -0.812062
v -0.157889 -1.000000 -0.923707
v -0.157889 1.000000 -0.923707
v -0.111645 -1.000000 -1.035351
v -0.111645 1.000000 -1.035351
v -0.000000 -1.000000 1.081596
v -0.000000 1.000000 1.081596
v 0.111645 -1.000000 1.035351
v 0.111645 1.000000 1.035351
v 0.157889 -1.000000 0.923707
v 0.157889 1.000000 0.923707
v 0.111645 -1.000000 0.812062
v 0.111645 1.000000 0.812062
v -0.000000 -1.000000 0.765817
v -0.000000 1.000000 0.765817
v -0.111645 -1.000000 0.812062
v -0.111645 1.000000 0.812062
v -0.157889 -1.000000 0.923707
v -0.157889 1.000000 0.923707
v -0.111645 -1.000000 1.035351
v -0.111645 1.000000 1.035351
v -0.000000 0.569056 -0.834949
v -0.000000 0.813592 0.803535
v 0.078224 0.537009 -0.830167
v 0.078224 0.781545 0.808318
v 0.110626 0.459642 -0.818620
v 0.110626 0.704178 0.819865
v 0.078224 0.382275 -0.807073
v 0.078224 0.626811 0.831412
v -0.000000 0.350228 -0.802291
v -0.000000 0.594764 0.836194
v -0.078224 0.382275 -0.807073
v -0.078224 0.626811 0.831412
v -0.110626 0.459642 -0.818620
v -0.110626 0.704178 0.819865
v -0.078224 0.537009 -0.830167
v -0.078224 0.781545 0.808318
v -0.000000 -0.414328 -0.834949
v -0.000000 -0.658864 0.803535
v 0.078224 -0.382282 -0.830167
v 0.078224 -0.626818 0.808318
v 0.110626 -0.304915 -0.818620
v 0.110626 -0.549451 0.819865
v 0.078224 -0.227547 -0.807073
v 0.078224 -0.472083 0.831412
v -0.000000 -0.195501 -0.802291
v -0.000000 -0.440037 0.836194
v -0.078224 -0.227547 -0.807073
v -0.078224 -0.472083 0.831412
v -0.110626 -0.304915 -0.818620
v -0.110626 -0.549451 0.819865
v -0.078224 -0.382282 -0.830167
v -0.078224 -0.626818 0.808318
v -0.000000 1.000000 -0.765817
v -0.000000 -1.000000 -0.765817
v 0.111645 -1.000000 -0.812062
v 0.157889 -1.000000 -0.923707
v 0.111645 -1.000000 -1.035351
v -0.000000 -1.000000 -1.081596
v -0.111645 -1.000000 -1.035351
v -0.157889 -1.000000 -0.923707
v -0.111645 -1.000000 -0.812062
v -0.000000 -1.000000 -0.923707
v -0.000000 -1.000000 1.081596
v 0.111645 -1.000000 1.035351
v 0.157889 -1.000000 0.923707
v 0.111645 -1.000000 0.812062
v -0.000000 -1.000000 0.765817
v -0.111645 -1.000000 0.812062
v -0.157889 -1.000000 0.923707
v -0.111645 -1.000000 1.035351
v -0.000000 -1.000000 0.923707
v -0.111645 1.000000 -0.812062
v -0.157890 1.000000 -0.923707
v -0.111645 1.000000 -1.035351
v -0.000000 1.000000 -1.081596
v 0.111645 1.000000 -1.035351
v 0.157889 1.000000 -0.923707
v 0.111645 1.000000 -0.812062
v -0.000000 1.000000 -0.923706
v -0.000000 1.000000 1.081596
v -0.111645 1.000000 1.035351
v -0.157890 1.000000 0.923707
v -0.111645 1.000000 0.812062
v -0.000000 1.000000 0.765817
v 0.111645 1.000000 0.812062
v 0.157889 1.000000 0.923707
v 0.111645 1.000000 1.035351
v -0.000000 1.000000 0.923707
vn -0.0000 -0.0000 -1.0000
vn 0.7071 -0.0000 -0.7071
vn 1.0000 -0.0000 -0.0000
vn 0.7071 -0.0000 0.7071
vn -0.0000 -0.0000 1.0000
vn -0.7071 -0.0000 0.7071
vn -1.0000 -0.0000 -0.0000
vn -0.7071 -0.0000 -0.7071
vn -0.0000 0.9890 -0.1476
vn 0.7071 0.6994 -0.1044
vn 0.7071 -0.6994 0.1044
vn -0.0000 -0.9890 0.1476
vn -0.7071 -0.6994 0.1044
vn 0.7071 -0.6994 -0.1044
vn -0.7071 0.6994 -0.1044
vn -0.0000 -0.9890 -0.1476
vn 0.7071 0.6994 0.1044
vn -0.0000 0.9890 0.1476
vn -0.7071 0.6994 0.1044
vn -0.7071 -0.6994 -0.1044
vn -0.0000 1.0000 -0.0000
vn -0.0000 -1.0000 -0.0000
vt 0.568364 0.011648
vt 0.568364 0.587157
vt 0.533590 0.011648
vt 0.533590 0.587157
vt 0.498817 0.011648
vt 0.475520 0.011648
vt 0.498817 0.587157
vt 0.475520 0.587157
vt 0.440747 0.011648
vt 0.440747 0.587157
vt 0.405974 0.011648
vt 0.405974 0.587157
vt 0.371201 0.011648
vt 0.371201 0.587157
vt 0.336428 0.011649
vt 0.637910 0.011648
vt 0.336428 0.587157
vt 0.637910 0.587157
vt 0.603137 0.011648
vt 0.603137 0.587157
vt 0.081195 0.587157
vt 0.081195 0.011648
vt 0.046422 0.587157
vt 0.046422 0.011648
vt 0.011648 0.587157
vt 0.313131 0.587157
vt 0.011648 0.011648
vt 0.313131 0.011648
vt 0.278358 0.587157
vt 0.278358 0.011648
vt 0.243584 0.587157
vt 0.243584 0.011648
vt 0.208811 0.587157
vt 0.208811 0.011648
vt 0.174038 0.587157
vt 0.150741 0.587157
vt 0.174038 0.011648
vt 0.150741 0.011648
vt 0.115968 0.587157
vt 0.115968 0.011648
vt 0.781959 0.988352
vt 0.661207 0.511649
vt 0.781959 0.511648
vt 0.661207 0.988352
vt 0.806323 0.988352
vt 0.806323 0.511648
vt 0.830687 0.988352
vt 0.830687 0.511648
vt 0.855051 0.988351
vt 0.855051 0.511648
vt 0.879415 0.988352
vt 0.758662 0.511648
vt 0.879415 0.511648
vt 0.758662 0.988352
vt 0.734299 0.511649
vt 0.734299 0.988352
vt 0.709935 0.511649
vt 0.709935 0.988352
vt 0.685571 0.511649
vt 0.685571 0.988352
vt 0.661207 0.011648
vt 0.879415 0.011648
vt 0.661207 0.488352
vt 0.879415 0.488352
vt 0.685571 0.011648
vt 0.685571 0.488352
vt 0.709935 0.011648
vt 0.709935 0.488352
vt 0.734299 0.011648
vt 0.734299 0.488352
vt 0.758662 0.011648
vt 0.781959 0.011648
vt 0.758662 0.488352
vt 0.781959 0.488352
vt 0.806323 0.011648
vt 0.806323 0.488352
vt 0.830687 0.011648
vt 0.830687 0.488352
vt 0.855051 0.011648
vt 0.855051 0.488352
vt 0.498817 0.669816
vt 0.095598 0.635042
vt 0.071010 0.610454
vt 0.036237 0.610454
vt 0.011648 0.635042
vt 0.011648 0.669815
vt 0.036237 0.694404
vt 0.071010 0.694404
vt 0.095598 0.669815
vt 0.053623 0.652429
vt 0.118895 0.669815
vt 0.143484 0.694404
vt 0.178257 0.694404
vt 0.202845 0.669815
vt 0.202845 0.635042
vt 0.178257 0.610454
vt 0.143484 0.610454
vt 0.118895 0.635042
vt 0.160870 0.652429
vt 0.523406 0.694404
vt 0.558179 0.694404
vt 0.582767 0.669816
vt 0.582767 0.635042
vt 0.558179 0.610454
vt 0.523406 0.610454
vt 0.498817 0.635042
vt 0.540792 0.652429
vt 0.250730 0.610454
vt 0.226142 0.635042
vt 0.226142 0.669815
vt 0.250730 0.694404
vt 0.285504 0.694404
vt 0.310092 0.669815
vt 0.310092 0.635042
vt 0.285504 0.610454
vt 0.268117 0.652429
s 1
f 1/1/1 2/2/1 4/4/2 3/3/2
f 3/3/2 4/4/2 6/7/3 5/5/3
f 5/6/3 6/8/3 8/10/4 7/9/4
f 7/9/4 8/10/4 10/12/5 9/11/5
f 9/11/5 10/12/5 12/14/6 11/13/6
f 11/13/6 12/14/6 14/17/7 13/15/7
f 13/16/7 14/18/7 16/20/8 15/19/8
f 15/19/8 16/20/8 2/2/1 1/1/1
f 17/21/5 19/23/4 20/24/4 18/22/5
f 19/23/4 21/25/3 22/27/3 20/24/4
f 21/26/3 23/29/2 24/30/2 22/28/3
f 23/29/2 25/31/1 26/32/1 24/30/2
f 25/31/1 27/33/8 28/34/8 26/32/1
f 27/33/8 29/35/7 30/37/7 28/34/8
f 29/36/7 31/39/6 32/40/6 30/38/7
f 31/39/6 17/21/5 18/22/5 32/40/6
f 33/41/9 34/43/9 36/46/10 35/45/10
f 35/45/10 36/46/10 38/48/3 37/47/3
f 37/47/3 38/48/3 40/50/11 39/49/11
f 39/49/11 40/50/11 42/53/12 41/51/12
f 41/52/12 42/54/12 44/56/13 43/55/13
f 43/55/13 44/56/13 46/58/7 45/57/7
f 51/65/14 53/67/3 54/68/3 52/66/14
f 45/57/7 46/58/7 48/60/15 47/59/15
f 47/59/15 48/60/15 34/44/9 33/42/9
f 49/61/16 51/65/14 52/66/14 50/63/16
f 53/67/3 55/69/17 56/70/17 54/68/3
f 55/69/17 57/71/18 58/73/18 56/70/17
f 57/72/18 59/75/19 60/76/19 58/74/18
f 59/75/19 61/77/7 62/78/7 60/76/19
f 61/77/7 63/79/20 64/80/20 62/78/7
f 63/79/20 49/62/16 50/64/16 64/80/20
f 86/102/21 85/101/21 91/107/21 87/103/21
f 89/105/21 91/107/21 65/81/21 90/106/21
f 65/81/21 91/107/21 85/101/21 84/100/21
f 88/104/21 87/103/21 91/107/21 89/105/21
f 71/87/22 70/86/22 74/90/22 72/88/22
f 66/82/22 74/90/22 68/84/22 67/83/22
f 72/88/22 74/90/22 66/82/22 73/89/22
f 69/85/22 68/84/22 74/90/22 70/86/22
f 80/96/22 79/95/22 83/99/22 81/97/22
f 75/91/22 83/99/22 77/93/22 76/92/22
f 81/97/22 83/99/22 75/91/22 82/98/22
f 78/94/22 77/93/22 83/99/22 79/95/22
f 97/113/21 96/112/21 100/116/21 98/114/21
f 92/108/21 100/116/21 94/110/21 93/109/21
f 98/114/21 100/116/21 92/108/21 99/115/21
f 95/111/21 94/110/21 100/116/21 96/112/21
