# Blender 3.4.1
# www.blender.org
o Cube
v -0.769850 0.867720 1.769324
v -0.661264 3.385437 1.769324
v -0.769850 0.867720 1.420097
v -0.661264 3.385437 1.420097
v 0.000000 0.686478 1.769324
v -0.842442 1.829411 1.769324
v -0.842442 1.829411 1.420097
v -0.578460 3.489771 1.420097
v -0.960509 1.286637 1.769324
v -0.960509 1.286637 1.420097
v -0.896169 1.000961 1.769324
v -0.896169 1.000961 1.420097
v -0.453949 0.744536 1.769324
v -0.578460 3.489771 1.769324
v -1.038878 2.565579 1.420097
v -1.038878 2.565579 1.769324
v -0.874840 2.197495 1.769324
v -0.874840 2.197495 1.420097
v -1.105010 2.839293 1.420097
v -1.105010 2.839293 1.769324
v -1.080086 3.077669 1.420097
v -1.080086 3.077669 1.769324
v -0.891414 3.294700 1.420097
v -0.891414 3.294700 1.769324
v -0.385713 3.691813 1.769324
v -0.178702 3.834237 1.769324
v -0.461893 3.524549 1.420097
v -0.461893 3.524549 1.769324
v -0.385713 3.691813 1.420097
v -0.178702 3.834237 1.420097
v 0.000000 3.859078 1.420097
v 0.000000 3.859078 1.769324
v 0.000000 0.686478 1.420097
v -0.453949 0.744536 1.420097
v -0.673086 1.072118 1.769324
v -0.578149 3.273380 1.769324
v 0.000000 0.913657 1.769324
v -0.736555 1.912933 1.769324
v -0.839781 1.438381 1.769324
v -0.783528 1.188612 1.769324
v -0.396891 0.964417 1.769324
v -0.505752 3.364600 1.769324
v -0.908300 2.556571 1.769324
v -0.764880 2.234752 1.769324
v -0.966120 2.795882 1.769324
v -0.944328 3.004296 1.769324
v -0.779370 3.194048 1.769324
v -0.337232 3.541247 1.769324
v -0.156240 3.665769 1.769324
v -0.403837 3.395006 1.769324
v 0.000000 3.687489 1.769324
v -0.764880 2.234752 1.659302
v -0.673086 1.072118 1.659302
v -0.578149 3.273380 1.659302
v -0.908300 2.556571 1.659302
v -0.736555 1.912933 1.659302
v -0.839781 1.438381 1.659302
v -0.783528 1.188612 1.659302
v -0.396891 0.964417 1.659302
v -0.505752 3.364600 1.659302
v -0.908300 2.556571 1.659302
v -0.764880 2.234752 1.659302
v -0.966120 2.795882 1.659302
v -0.944328 3.004296 1.659302
v -0.779370 3.194048 1.659302
v -0.337232 3.541247 1.659302
v -0.156240 3.665769 1.659302
v -0.403837 3.395006 1.659302
v 0.000000 3.687489 1.659302
v 0.000000 0.913657 1.659302
v -0.505752 3.364600 1.659302
v -0.396891 0.964417 1.659302
v 0.769850 0.867720 1.769324
v 0.661264 3.385437 1.769324
v 0.769850 0.867720 1.420097
v 0.661264 3.385437 1.420097
v 0.842442 1.829411 1.769324
v 0.842442 1.829411 1.420097
v 0.578460 3.489771 1.420097
v 0.960509 1.286637 1.769324
v 0.960509 1.286637 1.420097
v 0.896169 1.000961 1.769324
v 0.896169 1.000961 1.420097
v 0.453949 0.744536 1.769324
v 0.578460 3.489771 1.769324
v 1.038878 2.565579 1.420097
v 1.038878 2.565579 1.769324
v 0.874840 2.197495 1.769324
v 0.874840 2.197495 1.420097
v 1.105010 2.839293 1.420097
v 1.105010 2.839293 1.769324
v 1.080086 3.077669 1.420097
v 1.080086 3.077669 1.769324
v 0.891414 3.294700 1.420097
v 0.891414 3.294700 1.769324
v 0.385713 3.691813 1.769324
v 0.178702 3.834237 1.769324
v 0.461893 3.524549 1.420097
v 0.461893 3.524549 1.769324
v 0.385713 3.691813 1.420097
v 0.178702 3.834237 1.420097
v 0.453949 0.744536 1.420097
v 0.673086 1.072118 1.769324
v 0.578149 3.273380 1.769324
v 0.736555 1.912933 1.769324
v 0.839781 1.438381 1.769324
v 0.783528 1.188612 1.769324
v 0.396891 0.964417 1.769324
v 0.505752 3.364600 1.769324
v 0.908300 2.556571 1.769324
v 0.764880 2.234752 1.769324
v 0.966120 2.795882 1.769324
v 0.944328 3.004296 1.769324
v 0.779370 3.194048 1.769324
v 0.337232 3.541247 1.769324
v 0.156240 3.665769 1.769324
v 0.403837 3.395006 1.769324
v 0.673086 1.072118 1.659302
v 0.578149 3.273380 1.659302
v 0.736555 1.912933 1.659302
v 0.839781 1.438381 1.659302
v 0.783528 1.188612 1.659302
v 0.396891 0.964417 1.659302
v 0.505752 3.364600 1.659302
v 0.908300 2.556571 1.659302
v 0.764880 2.234752 1.659302
v 0.966120 2.795882 1.659302
v 0.944328 3.004296 1.659302
v 0.779370 3.194048 1.659302
v 0.337232 3.541247 1.659302
v 0.156240 3.665769 1.659302
v 0.403837 3.395006 1.659302
v -0.783528 1.188612 1.659302
v -0.839781 1.438381 1.659302
v -0.736555 1.912933 1.659302
v -0.578149 3.273380 1.659302
v -0.673086 1.072118 1.659302
v 0.000000 2.234752 1.659302
v -0.966120 2.795882 1.659302
v -0.944328 3.004296 1.659302
v -0.779370 3.194048 1.659302
v -0.337232 3.541247 1.659302
v -0.156240 3.665769 1.659302
v -0.403837 3.395006 1.659302
v 0.000000 3.687489 1.659302
v 0.000000 0.964417 1.659302
v 0.000000 1.188612 1.659302
v 0.000000 1.438381 1.659302
v 0.000000 1.912933 1.659302
v 0.000000 0.913657 1.659302
v 0.000000 1.072118 1.659302
v 0.000000 2.795882 1.659302
v 0.000000 2.556571 1.659302
v 0.000000 3.194048 1.659302
v 0.000000 3.395006 1.659302
v 0.000000 3.004296 1.659302
v 0.000000 3.364600 1.659302
v 0.000000 3.541247 1.659302
v 0.673086 1.072118 1.659302
v 0.578149 3.273380 1.659302
v 0.736555 1.912933 1.659302
v 0.839781 1.438381 1.659302
v 0.783528 1.188612 1.659302
v 0.396891 0.964417 1.659302
v 0.505752 3.364600 1.659302
v 0.908300 2.556571 1.659302
v 0.764880 2.234752 1.659302
v 0.966120 2.795882 1.659302
v 0.944328 3.004296 1.659302
v 0.779370 3.194048 1.659302
v 0.337232 3.541247 1.659302
v 0.156240 3.665769 1.659302
v 0.403837 3.395006 1.659302
v 0.000000 3.273380 1.659302
vn -0.5773 0.8166 -0.0000
vn -0.4350 0.6154 0.6573
vn -0.3796 0.5123 0.7704
vn -0.5954 0.8034 -0.0000
vn -1.0000 -0.0037 -0.0000
vn -0.7499 -0.0028 0.6615
vn -0.6684 0.0423 0.7426
vn -0.9980 0.0632 -0.0000
vn -0.8823 -0.4707 -0.0000
vn -0.6690 -0.3569 0.6520
vn -0.5580 -0.8299 -0.0000
vn -0.4186 -0.6226 0.6611
vn -0.9680 -0.2508 -0.0000
vn -0.6445 -0.1670 0.7462
vn -0.6877 -0.2341 0.6872
vn -0.9466 -0.3223 -0.0000
vn -0.7400 -0.0492 0.6708
vn -0.9978 -0.0664 -0.0000
vn -0.7007 0.3045 0.6452
vn -0.9172 0.3985 -0.0000
vn -0.4281 0.6326 0.6453
vn -0.5605 0.8282 -0.0000
vn -0.3824 0.4389 0.8131
vn -0.6569 0.7540 -0.0000
vn -0.5812 0.4874 0.6516
vn -0.7663 0.6425 -0.0000
vn -0.2723 0.7013 0.6588
vn -0.3620 0.9322 -0.0000
vn -0.0000 0.7356 0.6774
vn -0.0000 1.0000 -0.0000
vn -0.1809 -0.7099 0.6807
vn -0.2469 -0.9690 -0.0000
vn -0.0000 -0.7335 0.6796
vn -0.0000 -1.0000 -0.0000
vn 0.6488 0.2209 0.7282
vn 0.6629 0.0441 0.7474
vn -0.0000 0.6761 0.7368
vn 0.1673 0.6564 0.7356
vn 0.4508 -0.6084 0.6532
vn 0.3498 -0.5169 0.7813
vn 0.7171 0.1858 0.6718
vn 0.4866 -0.4080 0.7725
vn 0.2341 -0.6028 0.7628
vn 0.7366 -0.0466 0.6748
vn 0.5608 0.2992 0.7720
vn 0.6509 0.0024 0.7591
vn 0.5722 -0.2486 0.7815
vn 0.5129 -0.5887 0.6247
vn 0.3628 0.5396 0.7597
vn 0.3720 -0.5262 0.7647
vn -0.0000 -0.6732 0.7395
vn 0.6569 -0.7540 -0.0000
vn 0.7663 -0.6425 -0.0000
vn 0.2469 0.9690 -0.0000
vn 0.3620 -0.9322 -0.0000
vn 0.9980 -0.0632 -0.0000
vn 0.9680 0.2508 -0.0000
vn 0.8823 0.4707 -0.0000
vn 1.0000 0.0037 -0.0000
vn 0.5580 0.8299 -0.0000
vn 0.9466 0.3223 -0.0000
vn 0.9978 0.0664 -0.0000
vn 0.9172 -0.3985 -0.0000
vn 0.5773 -0.8166 -0.0000
vn 0.5954 -0.8034 -0.0000
vn 0.5605 -0.8282 -0.0000
vn 0.5773 0.8166 -0.0000
vn 0.5954 0.8034 -0.0000
vn 0.3796 0.5123 0.7704
vn 0.4350 0.6154 0.6573
vn 1.0000 -0.0037 -0.0000
vn 0.9980 0.0632 -0.0000
vn 0.6684 0.0423 0.7426
vn 0.7499 -0.0028 0.6615
vn 0.8823 -0.4707 -0.0000
vn 0.6690 -0.3569 0.6520
vn 0.5580 -0.8299 -0.0000
vn 0.4186 -0.6226 0.6611
vn 0.9680 -0.2508 -0.0000
vn 0.9466 -0.3223 -0.0000
vn 0.6877 -0.2341 0.6872
vn 0.6445 -0.1670 0.7462
vn 0.9978 -0.0664 -0.0000
vn 0.7400 -0.0492 0.6708
vn 0.9172 0.3985 -0.0000
vn 0.7007 0.3045 0.6452
vn 0.5605 0.8282 -0.0000
vn 0.4281 0.6326 0.6453
vn 0.6569 0.7540 -0.0000
vn 0.3824 0.4389 0.8131
vn 0.7663 0.6425 -0.0000
vn 0.5812 0.4874 0.6516
vn 0.3620 0.9322 -0.0000
vn 0.2723 0.7013 0.6588
vn 0.1809 -0.7099 0.6807
vn 0.2469 -0.9690 -0.0000
vn -0.6629 0.0441 0.7474
vn -0.6488 0.2209 0.7282
vn -0.1673 0.6564 0.7356
vn -0.3498 -0.5169 0.7813
vn -0.4508 -0.6084 0.6532
vn -0.7171 0.1858 0.6718
vn -0.2341 -0.6028 0.7628
vn -0.4866 -0.4080 0.7725
vn -0.7366 -0.0466 0.6748
vn -0.6509 0.0024 0.7591
vn -0.5608 0.2992 0.7720
vn -0.5722 -0.2486 0.7815
vn -0.5129 -0.5887 0.6247
vn -0.3628 0.5396 0.7597
vn -0.3720 -0.5262 0.7647
vn -0.7663 -0.6425 -0.0000
vn -0.6569 -0.7540 -0.0000
vn -0.2469 0.9690 -0.0000
vn -0.3620 -0.9322 -0.0000
vn -0.9680 0.2508 -0.0000
vn -0.9980 -0.0632 -0.0000
vn -1.0000 0.0037 -0.0000
vn -0.8823 0.4707 -0.0000
vn -0.5580 0.8299 -0.0000
vn -0.9978 0.0664 -0.0000
vn -0.9466 0.3223 -0.0000
vn -0.9172 -0.3985 -0.0000
vn -0.5773 -0.8166 -0.0000
vn -0.5954 -0.8034 -0.0000
vn -0.5605 -0.8282 -0.0000
vn -0.0000 -0.0000 1.0000
vt 0.842635 0.150928
vt 0.074472 0.038309
vt 0.842635 0.664548
vt 0.091614 0.490456
vt 0.779931 0.150928
vt 0.779931 0.664548
vt 0.842635 0.007879
vt 0.858393 0.007879
vt 0.212865 0.006487
vt 0.842635 0.336204
vt 0.060539 0.210909
vt 0.779931 0.336204
vt 0.779931 0.688464
vt 0.842635 0.236471
vt 0.039848 0.113345
vt 0.779931 0.236471
vt 0.842635 0.183893
vt 0.051667 0.062113
vt 0.779931 0.183893
vt 0.842635 0.090049
vt 0.131306 0.016487
vt 0.842635 0.688464
vt 0.106384 0.509266
vt 0.779931 0.474903
vt 0.842635 0.474903
vt 0.024581 0.342901
vt 0.842635 0.402549
vt 0.054378 0.276966
vt 0.779931 0.402549
vt 0.779931 0.525462
vt 0.842635 0.525462
vt 0.012452 0.391983
vt 0.779931 0.568496
vt 0.842635 0.568496
vt 0.016704 0.434806
vt 0.779931 0.620129
vt 0.842635 0.620129
vt 0.050376 0.473950
vt 0.842635 0.743305
vt 0.140802 0.545722
vt 0.842635 0.788421
vt 0.177836 0.571488
vt 0.779931 0.710305
vt 0.842635 0.710305
vt 0.127280 0.515620
vt 0.779931 0.743305
vt 0.779931 0.788421
vt 0.779931 0.820815
vt 0.921096 0.820815
vt 0.842635 0.820815
vt 0.858393 0.820815
vt 0.209898 0.576115
vt 0.779931 0.007879
vt 0.921096 0.007879
vt 0.779931 0.090049
vt 0.091654 0.075098
vt 0.972367 0.132948
vt 0.106642 0.470415
vt 0.972367 0.582010
vt 0.972367 0.007879
vt 0.212652 0.047276
vt 0.936854 0.718636
vt 0.079473 0.226004
vt 0.972367 0.294936
vt 0.061382 0.140703
vt 0.972367 0.207739
vt 0.071716 0.095911
vt 0.972367 0.161770
vt 0.141345 0.056019
vt 0.972367 0.079721
vt 0.119555 0.486860
vt 0.972367 0.602920
vt 0.048035 0.341406
vt 0.972367 0.416202
vt 0.074086 0.283759
vt 0.972367 0.352942
vt 0.037429 0.384319
vt 0.972367 0.460406
vt 0.041147 0.421759
vt 0.972367 0.498031
vt 0.070587 0.455983
vt 0.972367 0.543175
vt 0.149647 0.518734
vt 0.972367 0.650868
vt 0.182027 0.541261
vt 0.972367 0.690313
vt 0.137825 0.492415
vt 0.972367 0.622016
vt 0.972367 0.718636
vt 0.210059 0.545307
vt 0.936854 0.007879
vt 0.447832 0.711049
vt 0.992121 0.132948
vt 0.992121 0.582010
vt 0.421914 0.768756
vt 0.992121 0.294936
vt 0.992121 0.207739
vt 0.992121 0.161770
vt 0.992121 0.079721
vt 0.992121 0.602920
vt 0.992121 0.416202
vt 0.992121 0.352942
vt 0.992121 0.460406
vt 0.992121 0.498031
vt 0.992121 0.543175
vt 0.992121 0.650868
vt 0.992121 0.690313
vt 0.992121 0.622016
vt 0.992121 0.718636
vt 0.956609 0.007879
vt 0.992121 0.007879
vt 0.956609 0.718636
vt 0.493768 0.914046
vt 0.514567 0.483156
vt 0.858393 0.150928
vt 0.350919 0.039748
vt 0.858393 0.664548
vt 0.329069 0.491693
vt 0.921096 0.150928
vt 0.921096 0.664548
vt 0.858393 0.336204
vt 0.363053 0.212484
vt 0.921096 0.336204
vt 0.921096 0.688464
vt 0.858393 0.236471
vt 0.384759 0.115141
vt 0.921096 0.236471
vt 0.858393 0.183893
vt 0.373474 0.063789
vt 0.921096 0.183893
vt 0.858393 0.090049
vt 0.294315 0.017336
vt 0.858393 0.688464
vt 0.314104 0.510348
vt 0.921096 0.474903
vt 0.858393 0.474903
vt 0.397634 0.344844
vt 0.858393 0.402549
vt 0.368526 0.278602
vt 0.921096 0.402549
vt 0.921096 0.525462
vt 0.858393 0.525462
vt 0.409252 0.394050
vt 0.921096 0.568496
vt 0.858393 0.568496
vt 0.404554 0.436826
vt 0.921096 0.620129
vt 0.858393 0.620129
vt 0.370476 0.475616
vt 0.858393 0.743305
vt 0.279308 0.546444
vt 0.858393 0.788420
vt 0.242007 0.571822
vt 0.921096 0.710305
vt 0.858393 0.710305
vt 0.293142 0.516483
vt 0.921096 0.743305
vt 0.921096 0.788420
vt 0.921096 0.090049
vt 0.333354 0.076357
vt 0.936854 0.593567
vt 0.314250 0.471496
vt 0.936854 0.144505
vt 0.343963 0.227381
vt 0.936854 0.431579
vt 0.362941 0.142274
vt 0.936854 0.518776
vt 0.353074 0.097376
vt 0.936854 0.564745
vt 0.283865 0.056761
vt 0.936854 0.646795
vt 0.301166 0.487806
vt 0.936854 0.123595
vt 0.374198 0.343104
vt 0.936854 0.310313
vt 0.348748 0.285189
vt 0.936854 0.373573
vt 0.384355 0.386125
vt 0.936854 0.266109
vt 0.380248 0.423525
vt 0.936854 0.228484
vt 0.350453 0.457440
vt 0.936854 0.183340
vt 0.270744 0.519365
vt 0.936854 0.075647
vt 0.238132 0.541553
vt 0.936854 0.036201
vt 0.282840 0.493170
vt 0.936854 0.104499
vt 0.956609 0.593567
vt 0.956609 0.144505
vt 0.956609 0.431579
vt 0.956609 0.518776
vt 0.956609 0.564745
vt 0.956609 0.646795
vt 0.956609 0.123595
vt 0.956609 0.310313
vt 0.956609 0.373573
vt 0.956609 0.266109
vt 0.956609 0.228484
vt 0.956609 0.183340
vt 0.956609 0.075647
vt 0.956609 0.036201
vt 0.956609 0.104499
vt 0.445030 0.523208
vt 0.434800 0.568024
vt 0.453086 0.653282
vt 0.480817 0.897630
vt 0.464921 0.502349
vt 0.585165 0.711449
vt 0.411407 0.811694
vt 0.415211 0.849125
vt 0.444730 0.883281
vt 0.523933 0.945851
vt 0.556365 0.968303
vt 0.512051 0.919559
vt 0.584406 0.972284
vt 0.585828 0.483363
vt 0.585711 0.523617
vt 0.585580 0.568462
vt 0.585333 0.653667
vt 0.585855 0.474249
vt 0.585772 0.502701
vt 0.584872 0.812198
vt 0.584997 0.769230
vt 0.584664 0.883688
vt 0.584559 0.919770
vt 0.584763 0.849618
vt 0.584575 0.914310
vt 0.584483 0.946027
vt 0.706623 0.503052
vt 0.688428 0.898234
vt 0.717579 0.654051
vt 0.736361 0.568901
vt 0.726392 0.524026
vt 0.657089 0.483570
vt 0.675382 0.914574
vt 0.748080 0.769705
vt 0.722497 0.711848
vt 0.758336 0.812703
vt 0.754315 0.850111
vt 0.724598 0.884095
vt 0.645032 0.946203
vt 0.612470 0.968466
vt 0.657067 0.919980
vt 0.584622 0.897932
s 1
f 23/36/1 24/37/2 2/3/3 4/6/4
f 10/16/5 9/14/6 6/10/7 7/12/8
f 12/19/9 11/17/10 9/14/6 10/16/5
f 3/5/11 1/1/12 11/17/10 12/19/9
f 18/29/13 17/27/14 16/25/15 15/24/16
f 7/12/8 6/10/7 17/27/14 18/29/13
f 15/24/16 16/25/15 20/31/17 19/30/18
f 19/30/18 20/31/17 22/34/19 21/33/20
f 21/33/20 22/34/19 24/37/2 23/36/1
f 4/6/4 2/3/3 14/22/21 8/13/22
f 8/13/22 14/22/21 28/44/23 27/43/24
f 27/43/24 28/44/23 25/39/25 29/46/26
f 29/46/26 25/39/25 26/41/27 30/47/28
f 30/47/28 26/41/27 32/50/29 31/48/30
f 13/20/31 1/1/12 3/5/11 34/55/32
f 5/7/33 13/20/31 34/55/32 33/53/34
f 20/32/17 16/26/15 43/73/35 45/77/36
f 13/21/31 5/9/33 37/61/37 41/69/38
f 14/23/21 2/4/3 36/58/39 42/71/40
f 16/26/15 17/28/14 44/75/41 43/73/35
f 26/42/27 25/40/25 48/83/42 49/85/43
f 17/28/14 6/11/7 38/63/44 44/75/41
f 9/15/6 11/18/10 40/67/45 39/65/46
f 22/35/19 20/32/17 45/77/36 46/79/47
f 28/45/23 14/23/21 42/71/40 50/87/48
f 11/18/10 1/2/12 35/56/49 40/67/45
f 24/38/2 22/35/19 46/79/47 47/81/50
f 1/2/12 13/21/31 41/69/38 35/56/49
f 25/40/25 28/45/23 50/87/48 48/83/42
f 2/4/3 24/38/2 47/81/50 36/58/39
f 32/52/29 26/42/27 49/85/43 51/90/51
f 6/11/7 9/15/6 39/65/46 38/63/44
f 48/84/42 50/88/48 68/108/52 66/106/53
f 41/70/38 37/60/37 70/111/30 59/99/54
f 51/89/51 49/86/43 67/107/55 69/109/34
f 44/76/41 38/64/44 56/96/56 62/102/57
f 39/66/46 40/68/45 58/98/58 57/97/59
f 40/68/45 35/57/49 53/93/60 58/98/58
f 35/57/49 41/70/38 59/99/54 53/93/60
f 45/78/36 43/74/35 61/101/61 63/103/62
f 43/74/35 44/76/41 62/102/57 61/101/61
f 46/80/47 45/78/36 63/103/62 64/104/63
f 47/82/50 46/80/47 64/104/63 65/105/64
f 36/59/39 47/82/50 65/105/64 54/94/65
f 42/72/40 36/59/39 54/94/65 60/100/66
f 49/86/43 48/84/42 66/106/53 67/107/55
f 50/88/48 42/72/40 60/100/66 68/108/52
f 38/64/44 39/66/46 57/97/59 56/96/56
f 94/147/67 76/120/68 74/117/69 95/148/70
f 81/127/71 78/123/72 77/121/73 80/125/74
f 83/130/75 81/127/71 80/125/74 82/128/76
f 75/119/77 83/130/75 82/128/76 73/115/78
f 89/140/79 86/135/80 87/136/81 88/138/82
f 78/123/72 89/140/79 88/138/82 77/121/73
f 86/135/80 90/141/83 91/142/84 87/136/81
f 90/141/83 92/144/85 93/145/86 91/142/84
f 92/144/85 94/147/67 95/148/70 93/145/86
f 76/120/68 79/124/87 85/133/88 74/117/69
f 79/124/87 98/154/89 99/155/90 85/133/88
f 98/154/89 100/157/91 96/150/92 99/155/90
f 100/157/91 101/158/93 97/152/94 96/150/92
f 101/158/93 31/49/30 32/51/29 97/152/94
f 84/131/95 102/159/96 75/119/77 73/115/78
f 5/8/33 33/54/34 102/159/96 84/131/95
f 91/143/84 112/178/97 110/174/98 87/137/81
f 84/132/95 108/170/99 37/61/37 5/9/33
f 85/134/88 109/172/100 104/162/101 74/118/69
f 87/137/81 110/174/98 111/176/102 88/139/82
f 97/153/94 116/186/103 115/184/104 96/151/92
f 88/139/82 111/176/102 105/164/105 77/122/73
f 80/126/74 106/166/106 107/168/107 82/129/76
f 93/146/86 113/180/108 112/178/97 91/143/84
f 99/156/90 117/188/109 109/172/100 85/134/88
f 82/129/76 107/168/107 103/160/110 73/116/78
f 95/149/70 114/182/111 113/180/108 93/146/86
f 73/116/78 103/160/110 108/170/99 84/132/95
f 96/151/92 115/184/104 117/188/109 99/156/90
f 74/118/69 104/162/101 114/182/111 95/149/70
f 32/52/29 51/90/51 116/186/103 97/153/94
f 77/122/73 105/164/105 106/166/106 80/126/74
f 115/185/104 130/202/112 132/204/113 117/189/109
f 108/171/99 123/195/114 70/112/30 37/62/37
f 51/91/51 69/110/34 131/203/115 116/187/103
f 111/177/102 126/198/116 120/192/117 105/165/105
f 106/167/106 121/193/118 122/194/119 107/169/107
f 107/169/107 122/194/119 118/190/120 103/161/110
f 103/161/110 118/190/120 123/195/114 108/171/99
f 112/179/97 127/199/121 125/197/122 110/175/98
f 110/175/98 125/197/122 126/198/116 111/177/102
f 113/181/108 128/200/123 127/199/121 112/179/97
f 114/183/111 129/201/124 128/200/123 113/181/108
f 104/163/101 119/191/125 129/201/124 114/183/111
f 109/173/100 124/196/126 119/191/125 104/163/101
f 116/187/103 131/203/115 130/202/112 115/185/104
f 117/189/109 132/204/113 124/196/126 109/173/100
f 105/165/105 120/192/117 121/193/118 106/167/106
f 134/206/127 133/205/127 147/219/127 148/220/127
f 139/211/127 55/95/127 153/225/127 152/224/127
f 137/209/127 72/114/127 146/218/127 151/223/127
f 142/214/127 158/230/127 145/217/127 143/215/127
f 52/92/127 135/207/127 149/221/127 138/210/127
f 142/214/127 144/216/127 155/227/127 158/230/127
f 55/95/127 52/92/127 138/210/127 153/225/127
f 135/207/127 134/206/127 148/220/127 149/221/127
f 133/205/127 137/209/127 151/223/127 147/219/127
f 140/212/127 139/211/127 152/224/127 156/228/127
f 141/213/127 140/212/127 156/228/127 154/226/127
f 136/208/127 141/213/127 154/226/127 174/246/127
f 72/114/127 150/222/127 146/218/127
f 162/234/127 148/220/127 147/219/127 163/235/127
f 71/113/127 136/208/127 174/246/127 157/229/127
f 168/240/127 152/224/127 153/225/127 166/238/127
f 159/231/127 151/223/127 146/218/127 164/236/127
f 171/243/127 172/244/127 145/217/127 158/230/127
f 167/239/127 138/210/127 149/221/127 161/233/127
f 171/243/127 158/230/127 155/227/127 173/245/127
f 166/238/127 153/225/127 138/210/127 167/239/127
f 161/233/127 149/221/127 148/220/127 162/234/127
f 163/235/127 147/219/127 151/223/127 159/231/127
f 169/241/127 156/228/127 152/224/127 168/240/127
f 170/242/127 154/226/127 156/228/127 169/241/127
f 160/232/127 174/246/127 154/226/127 170/242/127
f 144/216/127 71/113/127 157/229/127 155/227/127
f 164/236/127 146/218/127 150/222/127
f 165/237/127 173/245/127 155/227/127 157/229/127
f 160/232/127 165/237/127 157/229/127 174/246/127
