# Blender 3.4.1
# www.blender.org
o pillow
v -0.426161 0.434430 0.237796
v 0.000000 0.538048 0.000000
v -0.511138 0.472123 0.000000
v 0.000000 0.481861 0.237796
v -0.474206 0.000000 0.237796
v -0.539488 0.000000 0.000000
v 0.000000 0.000000 0.292610
v -0.273572 0.510684 0.000000
v -0.240930 0.454497 0.237796
v -0.215212 0.000000 0.275373
v -0.468675 0.208094 0.237796
v -0.532370 0.236187 0.000000
v 0.000000 0.208094 0.275373
v -0.228071 0.208094 0.275373
v 0.426161 0.434430 0.237796
v 0.511138 0.472123 0.000000
v 0.474206 0.000000 0.237796
v 0.539488 0.000000 0.000000
v 0.273572 0.510684 0.000000
v 0.240930 0.454497 0.237796
v 0.215212 0.000000 0.275373
v 0.468675 0.208094 0.237796
v 0.532370 0.236187 0.000000
v 0.228071 0.208094 0.275373
v -0.426161 0.434430 -0.237796
v 0.000000 0.481861 -0.237796
v -0.474206 0.000000 -0.237796
v 0.000000 0.000000 -0.292610
v -0.240930 0.454497 -0.237796
v -0.215212 0.000000 -0.275373
v -0.468675 0.208094 -0.237796
v 0.000000 0.208094 -0.275373
v -0.228071 0.208094 -0.275373
v 0.426161 0.434430 -0.237796
v 0.474206 0.000000 -0.237796
v 0.240930 0.454497 -0.237796
v 0.215212 0.000000 -0.275373
v 0.468675 0.208094 -0.237796
v 0.228071 0.208094 -0.275373
v -0.426161 -0.434430 0.237796
v 0.000000 -0.538048 0.000000
v -0.511138 -0.472123 0.000000
v 0.000000 -0.481861 0.237796
v -0.273572 -0.510684 0.000000
v -0.240930 -0.454497 0.237796
v -0.468675 -0.208094 0.237796
v -0.532370 -0.236187 0.000000
v 0.000000 -0.208094 0.275373
v -0.228071 -0.208094 0.275373
v 0.426161 -0.434430 0.237796
v 0.511138 -0.472123 0.000000
v 0.273572 -0.510684 0.000000
v 0.240930 -0.454497 0.237796
v 0.468675 -0.208094 0.237796
v 0.532370 -0.236187 0.000000
v 0.228071 -0.208094 0.275373
v -0.426161 -0.434430 -0.237796
v 0.000000 -0.481861 -0.237796
v -0.240930 -0.454497 -0.237796
v -0.468675 -0.208094 -0.237796
v 0.000000 -0.208094 -0.275373
v -0.228071 -0.208094 -0.275373
v 0.426161 -0.434430 -0.237796
v 0.240930 -0.454497 -0.237796
v 0.468675 -0.208094 -0.237796
v 0.228071 -0.208094 -0.275373
v -0.486039 0.446962 -0.029713
v -0.583259 0.577617 -0.092152
v -0.465626 0.462631 -0.014857
v -0.501217 0.640591 -0.032440
v -0.465626 0.462631 0.014857
v -0.501217 0.640591 0.086984
v -0.486039 0.446962 0.029713
v -0.583259 0.577617 0.146696
v -0.506451 0.431294 0.014857
v -0.665300 0.514643 0.086984
v -0.506451 0.431294 -0.014857
v -0.665300 0.514643 -0.032440
v -0.592535 0.668022 0.006175
v -0.637733 0.642226 -0.043952
v -0.603048 0.668850 0.068818
v -0.637733 0.642226 0.092339
v -0.682931 0.616430 0.042212
v -0.672418 0.615602 -0.020432
v 0.486039 0.446962 -0.029713
v 0.583259 0.577617 -0.092152
v 0.465626 0.462631 -0.014857
v 0.501217 0.640591 -0.032440
v 0.465626 0.462631 0.014857
v 0.501217 0.640591 0.086984
v 0.486039 0.446962 0.029713
v 0.583259 0.577617 0.146696
v 0.506451 0.431294 0.014857
v 0.665300 0.514643 0.086984
v 0.506451 0.431294 -0.014857
v 0.665300 0.514643 -0.032440
v 0.592535 0.668022 0.006175
v 0.637733 0.642226 -0.043952
v 0.603048 0.668850 0.068818
v 0.637733 0.642226 0.092339
v 0.682931 0.616430 0.042212
v 0.672418 0.615602 -0.020432
v -0.486039 -0.446962 -0.029713
v -0.583259 -0.577617 -0.092152
v -0.465626 -0.462631 -0.014857
v -0.501217 -0.640591 -0.032440
v -0.465626 -0.462631 0.014857
v -0.501217 -0.640591 0.086984
v -0.486039 -0.446962 0.029713
v -0.583259 -0.577617 0.146696
v -0.506451 -0.431294 0.014857
v -0.665300 -0.514643 0.086984
v -0.506451 -0.431294 -0.014857
v -0.665300 -0.514643 -0.032440
v -0.592535 -0.668022 0.006175
v -0.637733 -0.642226 -0.043952
v -0.603048 -0.668850 0.068818
v -0.637733 -0.642226 0.092339
v -0.682931 -0.616430 0.042212
v -0.672418 -0.615602 -0.020432
v 0.486039 -0.446962 -0.029713
v 0.583259 -0.577617 -0.092152
v 0.465626 -0.462631 -0.014857
v 0.501217 -0.640591 -0.032440
v 0.465626 -0.462631 0.014857
v 0.501217 -0.640591 0.086984
v 0.486039 -0.446962 0.029713
v 0.583259 -0.577617 0.146696
v 0.506451 -0.431294 0.014857
v 0.665300 -0.514643 0.086984
v 0.506451 -0.431294 -0.014857
v 0.665300 -0.514643 -0.032440
v 0.592535 -0.668022 0.006175
v 0.637733 -0.642226 -0.043952
v 0.603048 -0.668850 0.068818
v 0.637733 -0.642226 0.092339
v 0.682931 -0.616430 0.042212
v 0.672418 -0.615602 -0.020432
vn -0.0724 0.0664 0.9952
vn -0.1011 0.6589 0.7454
vn -0.4871 0.5406 0.6859
vn -0.6587 0.0687 0.7492
vn -0.1226 0.9925 -0.0000
vn -0.7378 0.6751 -0.0000
vn -0.9963 0.0856 -0.0000
vn -0.0000 1.0000 -0.0000
vn -0.0000 0.6935 0.7205
vn -0.0000 0.0916 0.9958
vn -0.0000 -0.0000 1.0000
vn -0.0918 -0.0000 0.9958
vn -0.6696 -0.0000 0.7427
vn -1.0000 -0.0000 -0.0000
vn 0.0724 0.0664 0.9952
vn 0.6587 0.0687 0.7492
vn 0.4871 0.5406 0.6859
vn 0.1011 0.6589 0.7454
vn 0.1226 0.9925 -0.0000
vn 0.7378 0.6751 -0.0000
vn 0.9963 0.0856 -0.0000
vn 0.0918 -0.0000 0.9958
vn 0.6696 -0.0000 0.7427
vn 1.0000 -0.0000 -0.0000
vn -0.0724 0.0664 -0.9952
vn -0.6587 0.0687 -0.7492
vn -0.4871 0.5406 -0.6859
vn -0.1011 0.6589 -0.7454
vn -0.0000 0.6935 -0.7205
vn -0.0000 0.0916 -0.9958
vn -0.0000 -0.0000 -1.0000
vn -0.0918 -0.0000 -0.9958
vn -0.6696 -0.0000 -0.7427
vn 0.0724 0.0664 -0.9952
vn 0.1011 0.6589 -0.7454
vn 0.4871 0.5406 -0.6859
vn 0.6587 0.0687 -0.7492
vn 0.0918 -0.0000 -0.9958
vn 0.6696 -0.0000 -0.7427
vn -0.0724 -0.0664 0.9952
vn -0.6587 -0.0687 0.7492
vn -0.4871 -0.5406 0.6859
vn -0.1011 -0.6589 0.7454
vn -0.1226 -0.9925 -0.0000
vn -0.7378 -0.6751 -0.0000
vn -0.9963 -0.0856 -0.0000
vn -0.0000 -1.0000 -0.0000
vn -0.0000 -0.6935 0.7205
vn -0.0000 -0.0916 0.9958
vn 0.0724 -0.0664 0.9952
vn 0.1011 -0.6589 0.7454
vn 0.4871 -0.5406 0.6859
vn 0.6587 -0.0687 0.7492
vn 0.1226 -0.9925 -0.0000
vn 0.7378 -0.6751 -0.0000
vn 0.9963 -0.0856 -0.0000
vn -0.0724 -0.0664 -0.9952
vn -0.1011 -0.6589 -0.7454
vn -0.4871 -0.5406 -0.6859
vn -0.6587 -0.0687 -0.7492
vn -0.0000 -0.6935 -0.7205
vn -0.0000 -0.0916 -0.9958
vn 0.0724 -0.0664 -0.9952
vn 0.6587 -0.0687 -0.7492
vn 0.4871 -0.5406 -0.6859
vn 0.1011 -0.6589 -0.7454
vn 0.2140 -0.2870 -0.9337
vn -0.0364 0.0916 -0.9951
vn 0.6434 0.6067 -0.4669
vn 0.8605 0.1233 -0.4943
vn 0.6674 0.5512 0.5008
vn 0.9226 0.0285 0.3848
vn -0.0009 -0.0113 0.9999
vn 0.3518 -0.4654 0.8122
vn -0.6940 -0.5116 0.5066
vn -0.2853 -0.8775 0.3855
vn -0.4448 0.6643 -0.6007
vn -0.0901 0.9688 -0.2309
vn -0.7246 -0.4964 -0.4781
vn -0.3602 -0.7909 -0.4948
vn -0.5056 0.6341 0.5851
vn -0.1355 0.9447 0.2988
vn -0.8566 0.3634 -0.3663
vn -0.9019 0.3856 0.1945
vn -0.2140 -0.2870 -0.9337
vn -0.8605 0.1233 -0.4943
vn -0.6434 0.6067 -0.4669
vn 0.0364 0.0916 -0.9951
vn -0.9226 0.0285 0.3848
vn -0.6674 0.5512 0.5008
vn -0.3518 -0.4654 0.8122
vn 0.0009 -0.0113 0.9999
vn 0.2853 -0.8775 0.3855
vn 0.6940 -0.5116 0.5066
vn 0.0901 0.9688 -0.2309
vn 0.4448 0.6643 -0.6007
vn 0.3602 -0.7909 -0.4948
vn 0.7246 -0.4964 -0.4781
vn 0.5056 0.6341 0.5851
vn 0.9019 0.3856 0.1945
vn 0.8566 0.3634 -0.3663
vn 0.1355 0.9447 0.2988
vn 0.2140 0.2870 -0.9337
vn 0.8605 -0.1233 -0.4943
vn 0.6434 -0.6067 -0.4669
vn -0.0364 -0.0916 -0.9951
vn 0.9226 -0.0285 0.3848
vn 0.6674 -0.5512 0.5008
vn 0.3518 0.4654 0.8122
vn -0.0009 0.0113 0.9999
vn -0.2853 0.8775 0.3855
vn -0.6940 0.5116 0.5066
vn -0.0901 -0.9688 -0.2309
vn -0.4448 -0.6643 -0.6007
vn -0.3602 0.7909 -0.4948
vn -0.7246 0.4964 -0.4781
vn -0.5056 -0.6341 0.5851
vn -0.9019 -0.3856 0.1945
vn -0.8566 -0.3634 -0.3663
vn -0.1355 -0.9447 0.2988
vn -0.2140 0.2870 -0.9337
vn 0.0364 -0.0916 -0.9951
vn -0.6434 -0.6067 -0.4669
vn -0.8605 -0.1233 -0.4943
vn -0.6674 -0.5512 0.5008
vn -0.9226 -0.0285 0.3848
vn 0.0009 0.0113 0.9999
vn -0.3518 0.4654 0.8122
vn 0.6940 0.5116 0.5066
vn 0.2853 0.8775 0.3855
vn 0.4448 -0.6643 -0.6007
vn 0.0901 -0.9688 -0.2309
vn 0.7246 0.4964 -0.4781
vn 0.3602 0.7909 -0.4948
vn 0.5056 -0.6341 0.5851
vn 0.1355 -0.9447 0.2988
vn 0.8566 -0.3634 -0.3663
vn 0.9019 -0.3856 0.1945
vt 0.455844 0.396940
vt 0.451776 0.480037
vt 0.691564 0.833011
vt 0.347695 0.663455
vt 0.347695 0.446071
vt 0.583423 0.846240
vt 0.450337 0.663455
vt 0.636563 0.422694
vt 0.687691 0.646156
vt 0.440011 0.211358
vt 0.583423 0.646156
vt 0.642483 0.217191
vt 0.347695 0.548459
vt 0.451904 0.559938
vt 0.534459 0.408107
vt 0.551268 0.214563
vt 0.687969 0.734794
vt 0.440011 0.300075
vt 0.583423 0.745737
vt 0.639941 0.305420
vt 0.543342 0.302545
vt 0.818465 0.407387
vt 0.451776 0.846873
vt 0.714942 0.833011
vt 0.347695 0.880839
vt 0.823083 0.846240
vt 0.718815 0.646156
vt 0.844956 0.223025
vt 0.823083 0.646156
vt 0.347695 0.778452
vt 0.451904 0.766973
vt 0.739336 0.414010
vt 0.733699 0.219819
vt 0.718537 0.734794
vt 0.839848 0.311594
vt 0.823083 0.745737
vt 0.736546 0.308111
vt 0.038180 0.026996
vt 0.243613 0.480037
vt 0.475282 0.833011
vt 0.245052 0.663455
vt 0.220082 0.011689
vt 0.479155 0.646156
vt 0.011689 0.211358
vt 0.214161 0.217191
vt 0.243485 0.559938
vt 0.117308 0.020373
vt 0.122946 0.214563
vt 0.478877 0.734794
vt 0.016796 0.122788
vt 0.216703 0.128963
vt 0.120099 0.126271
vt 0.400801 0.037443
vt 0.243613 0.846873
vt 0.931224 0.833011
vt 0.927351 0.646156
vt 0.416633 0.223025
vt 0.243485 0.766973
vt 0.322185 0.026276
vt 0.305376 0.219819
vt 0.927629 0.734794
vt 0.416633 0.134308
vt 0.313302 0.131837
vt 0.466502 0.026996
vt 0.011817 0.480038
vt 0.691564 0.459300
vt 0.115898 0.663455
vt 0.115898 0.446072
vt 0.583423 0.446071
vt 0.013255 0.663455
vt 0.648404 0.011689
vt 0.115898 0.548459
vt 0.011689 0.559938
vt 0.545630 0.020373
vt 0.687969 0.557517
vt 0.445119 0.122788
vt 0.583423 0.546575
vt 0.645025 0.128963
vt 0.548421 0.126271
vt 0.829123 0.037443
vt 0.011817 0.846873
vt 0.714942 0.459300
vt 0.115898 0.880839
vt 0.823083 0.446071
vt 0.115898 0.778452
vt 0.011689 0.766973
vt 0.750507 0.026276
vt 0.718537 0.557517
vt 0.844956 0.134308
vt 0.823083 0.546575
vt 0.741624 0.131837
vt 0.027522 0.396940
vt 0.219979 0.480038
vt 0.475282 0.459300
vt 0.218541 0.663455
vt 0.208241 0.422694
vt 0.220108 0.559938
vt 0.106137 0.408107
vt 0.478877 0.557517
vt 0.011689 0.300075
vt 0.211619 0.305420
vt 0.115020 0.302545
vt 0.390142 0.407387
vt 0.219979 0.846873
vt 0.931224 0.459300
vt 0.220108 0.766973
vt 0.311014 0.414010
vt 0.927629 0.557517
vt 0.411526 0.311594
vt 0.308223 0.308111
vt 0.957704 0.320378
vt 0.912091 0.265384
vt 0.970013 0.312871
vt 0.944606 0.245351
vt 0.984178 0.308753
vt 0.952447 0.159027
vt 0.868333 0.113553
vt 0.984178 0.214572
vt 0.961448 0.147597
vt 0.911847 0.085841
vt 0.974085 0.140097
vt 0.943836 0.069930
vt 0.988311 0.138703
vt 0.948366 0.331399
vt 0.870555 0.292820
vt 0.988311 0.051989
vt 0.919036 0.209478
vt 0.868333 0.391153
vt 0.891191 0.232162
vt 0.869247 0.360493
vt 0.496482 0.869617
vt 0.869609 0.052123
vt 0.938269 0.182404
vt 0.889533 0.407820
vt 0.476195 0.875334
vt 0.896654 0.045343
vt 0.475282 0.905994
vt 0.929862 0.027208
vt 0.496482 0.922661
vt 0.868333 0.240897
vt 0.957437 0.011689
vt 0.889533 0.354776
vt 0.957704 0.320378
vt 0.912091 0.265384
vt 0.970013 0.312871
vt 0.944606 0.245351
vt 0.984178 0.308753
vt 0.952447 0.159027
vt 0.868333 0.113553
vt 0.984178 0.214572
vt 0.961448 0.147597
vt 0.911847 0.085841
vt 0.974085 0.140097
vt 0.943836 0.069930
vt 0.988311 0.138703
vt 0.948366 0.331399
vt 0.870555 0.292820
vt 0.988311 0.051989
vt 0.919036 0.209478
vt 0.868333 0.391153
vt 0.891191 0.232162
vt 0.869247 0.360493
vt 0.496482 0.869617
vt 0.869609 0.052123
vt 0.938269 0.182404
vt 0.889533 0.407820
vt 0.476195 0.875334
vt 0.896654 0.045343
vt 0.475282 0.905994
vt 0.929862 0.027208
vt 0.496482 0.922661
vt 0.868333 0.240897
vt 0.957437 0.011689
vt 0.889533 0.354776
vt 0.957704 0.320378
vt 0.912091 0.265384
vt 0.970013 0.312871
vt 0.944606 0.245351
vt 0.984178 0.308753
vt 0.952447 0.159027
vt 0.868333 0.113553
vt 0.984178 0.214572
vt 0.961448 0.147597
vt 0.911847 0.085841
vt 0.974085 0.140097
vt 0.943836 0.069930
vt 0.988311 0.138703
vt 0.948366 0.331399
vt 0.870555 0.292820
vt 0.988311 0.051989
vt 0.919036 0.209478
vt 0.868333 0.391153
vt 0.891191 0.232162
vt 0.869247 0.360493
vt 0.496482 0.869617
vt 0.869609 0.052123
vt 0.938269 0.182404
vt 0.889533 0.407820
vt 0.476195 0.875334
vt 0.896654 0.045343
vt 0.475282 0.905994
vt 0.929862 0.027208
vt 0.496482 0.922661
vt 0.868333 0.240897
vt 0.957437 0.011689
vt 0.889533 0.354776
vt 0.957704 0.320378
vt 0.912091 0.265384
vt 0.970013 0.312871
vt 0.944606 0.245351
vt 0.984178 0.308753
vt 0.952447 0.159027
vt 0.868333 0.113553
vt 0.984178 0.214572
vt 0.961448 0.147597
vt 0.911847 0.085841
vt 0.974085 0.140097
vt 0.943836 0.069930
vt 0.988311 0.138703
vt 0.948366 0.331399
vt 0.870555 0.292820
vt 0.988311 0.051989
vt 0.919036 0.209478
vt 0.868333 0.391153
vt 0.891191 0.232162
vt 0.869247 0.360493
vt 0.496482 0.869617
vt 0.869609 0.052123
vt 0.938269 0.182404
vt 0.889533 0.407820
vt 0.476195 0.875334
vt 0.896654 0.045343
vt 0.475282 0.905994
vt 0.929862 0.027208
vt 0.496482 0.922661
vt 0.868333 0.240897
vt 0.957437 0.011689
vt 0.889533 0.354776
s 1
f 14/21/1 9/15/2 1/1/3 11/18/4
f 8/13/5 3/5/6 1/2/3 9/14/2
f 11/17/4 1/3/3 3/6/6 12/19/7
f 2/4/8 8/13/5 9/14/2 4/7/9
f 13/20/10 4/8/9 9/15/2 14/21/1
f 7/12/11 13/20/10 14/21/1 10/16/12
f 5/9/13 11/17/4 12/19/7 6/11/14
f 10/16/12 14/21/1 11/18/4 5/10/13
f 24/37/15 22/35/16 15/22/17 20/32/18
f 19/30/19 20/31/18 15/23/17 16/25/20
f 22/34/16 23/36/21 16/26/20 15/24/17
f 2/4/8 4/7/9 20/31/18 19/30/19
f 13/20/10 24/37/15 20/32/18 4/8/9
f 7/12/11 21/33/22 24/37/15 13/20/10
f 17/27/23 18/29/24 23/36/21 22/34/16
f 21/33/22 17/28/23 22/35/16 24/37/15
f 33/52/25 31/50/26 25/38/27 29/47/28
f 8/13/5 29/46/28 25/39/27 3/5/6
f 31/49/26 12/19/7 3/6/6 25/40/27
f 2/4/8 26/41/29 29/46/28 8/13/5
f 32/51/30 33/52/25 29/47/28 26/42/29
f 28/45/31 30/48/32 33/52/25 32/51/30
f 27/43/33 6/11/14 12/19/7 31/49/26
f 30/48/32 27/44/33 31/50/26 33/52/25
f 39/63/34 36/59/35 34/53/36 38/62/37
f 19/30/19 16/25/20 34/54/36 36/58/35
f 38/61/37 34/55/36 16/26/20 23/36/21
f 2/4/8 19/30/19 36/58/35 26/41/29
f 32/51/30 26/42/29 36/59/35 39/63/34
f 28/45/31 32/51/30 39/63/34 37/60/38
f 35/56/39 38/61/37 23/36/21 18/29/24
f 37/60/38 39/63/34 38/62/37 35/57/39
f 49/79/40 46/76/41 40/64/42 45/74/43
f 44/72/44 45/73/43 40/65/42 42/68/45
f 46/75/41 47/77/46 42/69/45 40/66/42
f 41/67/47 43/70/48 45/73/43 44/72/44
f 48/78/49 49/79/40 45/74/43 43/71/48
f 7/12/11 10/16/12 49/79/40 48/78/49
f 5/9/13 6/11/14 47/77/46 46/75/41
f 10/16/12 5/10/13 46/76/41 49/79/40
f 56/91/50 53/87/51 50/80/52 54/89/53
f 52/85/54 51/83/55 50/81/52 53/86/51
f 54/88/53 50/82/52 51/84/55 55/90/56
f 41/67/47 52/85/54 53/86/51 43/70/48
f 48/78/49 43/71/48 53/87/51 56/91/50
f 7/12/11 48/78/49 56/91/50 21/33/22
f 17/27/23 54/88/53 55/90/56 18/29/24
f 21/33/22 56/91/50 54/89/53 17/28/23
f 62/102/57 59/98/58 57/92/59 60/100/60
f 44/72/44 42/68/45 57/93/59 59/97/58
f 60/99/60 57/94/59 42/69/45 47/77/46
f 41/67/47 44/72/44 59/97/58 58/95/61
f 61/101/62 58/96/61 59/98/58 62/102/57
f 28/45/31 61/101/62 62/102/57 30/48/32
f 27/43/33 60/99/60 47/77/46 6/11/14
f 30/48/32 62/102/57 60/100/60 27/44/33
f 66/110/63 65/109/64 63/103/65 64/107/66
f 52/85/54 64/106/66 63/104/65 51/83/55
f 65/108/64 55/90/56 51/84/55 63/105/65
f 41/67/47 58/95/61 64/106/66 52/85/54
f 61/101/62 66/110/63 64/107/66 58/96/61
f 28/45/31 37/60/38 66/110/63 61/101/62
f 35/56/39 18/29/24 55/90/56 65/108/64
f 37/60/38 35/57/39 65/109/64 66/110/63
f 67/111/67 68/112/68 70/114/69 69/113/70
f 69/113/70 70/114/69 72/118/71 71/115/72
f 71/116/72 72/117/71 74/120/73 73/119/74
f 73/119/74 74/120/73 76/122/75 75/121/76
f 70/114/69 68/112/68 80/129/77 79/127/78
f 75/121/76 76/122/75 78/126/79 77/123/80
f 77/124/80 78/125/79 68/112/68 67/111/67
f 82/135/81 81/131/82 84/139/83 83/137/84
f 74/120/73 72/117/71 81/132/82 82/136/81
f 68/112/68 78/125/79 84/140/83 80/129/77
f 76/122/75 74/120/73 82/136/81 83/138/84
f 72/118/71 70/114/69 79/127/78 81/133/82
f 78/126/79 76/122/75 83/138/84 84/141/83
f 80/130/77 84/142/83 81/134/82 79/128/78
f 85/143/85 87/145/86 88/146/87 86/144/88
f 87/145/86 89/147/89 90/150/90 88/146/87
f 89/148/89 91/151/91 92/152/92 90/149/90
f 91/151/91 93/153/93 94/154/94 92/152/92
f 88/146/87 97/159/95 98/161/96 86/144/88
f 93/153/93 95/155/97 96/158/98 94/154/94
f 95/156/97 85/143/85 86/144/88 96/157/98
f 100/167/99 101/169/100 102/171/101 99/163/102
f 92/152/92 100/168/99 99/164/102 90/149/90
f 86/144/88 98/161/96 102/172/101 96/157/98
f 94/154/94 101/170/100 100/168/99 92/152/92
f 90/150/90 99/165/102 97/159/95 88/146/87
f 96/158/98 102/173/101 101/170/100 94/154/94
f 98/162/96 97/160/95 99/166/102 102/174/101
f 103/175/103 105/177/104 106/178/105 104/176/106
f 105/177/104 107/179/107 108/182/108 106/178/105
f 107/180/107 109/183/109 110/184/110 108/181/108
f 109/183/109 111/185/111 112/186/112 110/184/110
f 106/178/105 115/191/113 116/193/114 104/176/106
f 111/185/111 113/187/115 114/190/116 112/186/112
f 113/188/115 103/175/103 104/176/106 114/189/116
f 118/199/117 119/201/118 120/203/119 117/195/120
f 110/184/110 118/200/117 117/196/120 108/181/108
f 104/176/106 116/193/114 120/204/119 114/189/116
f 112/186/112 119/202/118 118/200/117 110/184/110
f 108/182/108 117/197/120 115/191/113 106/178/105
f 114/190/116 120/205/119 119/202/118 112/186/112
f 116/194/114 115/192/113 117/198/120 120/206/119
f 121/207/121 122/208/122 124/210/123 123/209/124
f 123/209/124 124/210/123 126/214/125 125/211/126
f 125/212/126 126/213/125 128/216/127 127/215/128
f 127/215/128 128/216/127 130/218/129 129/217/130
f 124/210/123 122/208/122 134/225/131 133/223/132
f 129/217/130 130/218/129 132/222/133 131/219/134
f 131/220/134 132/221/133 122/208/122 121/207/121
f 136/231/135 135/227/136 138/235/137 137/233/138
f 128/216/127 126/213/125 135/228/136 136/232/135
f 122/208/122 132/221/133 138/236/137 134/225/131
f 130/218/129 128/216/127 136/232/135 137/234/138
f 126/214/125 124/210/123 133/223/132 135/229/136
f 132/222/133 130/218/129 137/234/138 138/237/137
f 134/226/131 138/238/137 135/230/136 133/224/132
