# Blender 3.4.1
# www.blender.org
o toothbrush
v -0.025611 -0.025611 0.444600
v -0.025611 0.025611 0.444600
v -0.031551 0.000000 0.459523
v 0.000000 -0.025611 -0.344482
v 0.000000 0.025611 -0.344482
v -0.025611 -0.025611 -0.232745
v -0.040184 0.000000 -0.232745
v -0.025611 0.073074 -0.232745
v 0.043673 0.073074 -0.428903
v -0.058245 0.000000 -0.260061
v -0.058245 0.000000 -0.317166
v -0.043673 -0.025611 -0.317166
v -0.043673 -0.025611 -0.260061
v 0.000000 0.025611 -0.317166
v -0.043673 0.073074 -0.260061
v -0.043673 0.073074 -0.317166
v -0.025611 -0.025611 -0.456219
v -0.036165 0.000000 -0.466383
v -0.036371 -0.025611 -0.344482
v -0.036371 0.025611 -0.344482
v -0.050943 0.000000 -0.344482
v -0.036371 0.073074 -0.344482
v -0.025611 0.073074 -0.456219
v -0.058245 0.000000 -0.371798
v -0.058245 0.000000 -0.428903
v -0.043673 -0.025611 -0.428903
v -0.043673 -0.025611 -0.371798
v 0.000000 0.025611 -0.428903
v 0.000000 0.025611 -0.371798
v -0.043673 0.073074 -0.371798
v -0.043673 0.073074 -0.428903
v -0.043673 0.025611 -0.260061
v -0.043673 0.025611 -0.371798
v 0.025611 -0.025611 0.444600
v 0.025611 0.025611 0.444600
v 0.031551 0.000000 0.459523
v 0.025611 -0.025611 -0.232745
v 0.025611 0.025611 -0.232745
v 0.040184 0.000000 -0.232745
v 0.025611 0.073074 -0.232745
v 0.043673 0.025611 -0.260061
v -0.043673 0.025611 -0.317166
v 0.058245 0.000000 -0.260061
v 0.058245 0.000000 -0.317166
v 0.043673 -0.025611 -0.317166
v 0.043673 -0.025611 -0.260061
v 0.043673 0.073074 -0.260061
v 0.043673 0.073074 -0.317166
v 0.025611 -0.025611 -0.456219
v 0.025611 0.025611 -0.456219
v 0.036165 0.000000 -0.466383
v 0.036371 -0.025611 -0.344482
v 0.036371 0.025611 -0.344482
v 0.050943 0.000000 -0.344482
v 0.036371 0.073074 -0.344482
v 0.025611 0.073074 -0.456219
v 0.058245 0.000000 -0.371798
v 0.058245 0.000000 -0.428903
v 0.043673 -0.025611 -0.428903
v 0.043673 -0.025611 -0.371798
v 0.043673 0.073074 -0.371798
v -0.025611 0.025611 -0.456219
v -0.043673 0.025611 -0.428903
v 0.043673 0.025611 -0.317166
v 0.043673 0.025611 -0.428903
v -0.025611 0.025611 -0.232745
v 0.043673 0.025611 -0.371798
v -0.025611 -0.025611 0.108671
v -0.025611 0.025611 0.108671
v -0.035867 0.000000 0.108671
v 0.025611 -0.025611 0.108671
v 0.035867 0.000000 0.108671
v 0.025611 0.025611 0.108671
vn -0.9921 -0.0000 -0.1252
vn -0.9573 0.2592 -0.1284
vn -0.9693 0.2459 -0.0000
vn -1.0000 -0.0000 -0.0000
vn 0.7296 0.6477 0.2194
vn 0.7279 0.6789 -0.0956
vn -0.7279 0.6789 -0.0956
vn -0.7296 0.6477 0.2194
vn -0.4988 0.7758 0.3864
vn 0.4988 0.7758 0.3864
vn 0.5603 0.8283 0.0035
vn -0.5603 0.8283 0.0035
vn 0.5603 -0.8283 0.0035
vn 0.4988 -0.7758 0.3864
vn -0.4988 -0.7758 0.3864
vn -0.5603 -0.8283 0.0035
vn 0.5463 -0.8175 0.1823
vn 0.4305 -0.8949 0.1178
vn -0.4305 -0.8949 0.1178
vn -0.5463 -0.8175 0.1823
vn 0.6454 -0.0000 0.7639
vn -0.6454 -0.0000 0.7639
vn -0.5295 -0.8452 -0.0726
vn -0.4352 -0.9003 -0.0000
vn 0.6379 0.7701 -0.0000
vn -0.6379 0.7701 -0.0000
vn -1.0000 -0.0000 0.0063
vn -0.9491 -0.0000 0.3150
vn 0.4352 -0.9003 -0.0000
vn 0.5295 -0.8452 -0.0726
vn -0.0000 -1.0000 -0.0000
vn -0.3736 0.6144 0.6949
vn -0.6629 0.5037 0.5539
vn 0.6629 0.5037 0.5539
vn 0.3736 0.6144 0.6949
vn -0.9214 0.2564 0.2920
vn -0.5205 -0.0000 -0.8539
vn -0.4401 0.2546 -0.8611
vn 0.4401 0.2546 -0.8611
vn 0.5205 -0.0000 -0.8539
vn -0.9641 -0.0000 0.2657
vn -0.9676 -0.0000 -0.2524
vn -0.9215 0.2665 -0.2825
vn 0.2704 -0.7857 -0.5564
vn 0.5419 -0.8231 -0.1695
vn -0.5419 -0.8231 -0.1695
vn -0.2704 -0.7857 -0.5564
vn -0.9573 0.2592 0.1284
vn -0.7279 0.6789 0.0956
vn -0.3736 0.6144 -0.6949
vn 0.3736 0.6144 -0.6949
vn -0.7296 0.6477 -0.2194
vn 0.5295 -0.8452 0.0726
vn -0.5295 -0.8452 0.0726
vn -0.9921 -0.0000 0.1252
vn 0.9921 -0.0000 -0.1252
vn 1.0000 -0.0000 -0.0000
vn 0.9693 0.2459 -0.0000
vn 0.9573 0.2592 -0.1284
vn 0.7279 0.6789 0.0956
vn 0.7296 0.6477 -0.2194
vn 0.9491 -0.0000 0.3150
vn 1.0000 -0.0000 0.0063
vn 0.9214 0.2564 0.2920
vn 0.9641 -0.0000 0.2657
vn 0.9676 -0.0000 -0.2524
vn 0.9215 0.2665 -0.2825
vn 0.9573 0.2592 0.1284
vn 0.9921 -0.0000 0.1252
vt 0.682784 0.541457
vt 0.279937 0.028684
vt 0.047966 0.028684
vt 0.604061 0.541457
vt 0.013071 0.008837
vt 0.314831 0.008837
vt 0.643422 0.533569
vt 0.528394 0.513402
vt 0.562403 0.365026
vt 0.342914 0.009802
vt 0.279937 0.928137
vt 0.319066 0.928166
vt 0.008837 0.928166
vt 0.381826 0.018376
vt 0.047966 0.991163
vt 0.485569 0.010315
vt 0.360723 0.365026
vt 0.452727 0.625505
vt 0.650476 0.074274
vt 0.381774 0.059595
vt 0.382958 0.129132
vt 0.586387 0.477129
vt 0.343406 0.130130
vt 0.586387 0.401299
vt 0.345542 0.054006
vt 0.484549 0.054999
vt 0.336739 0.401299
vt 0.336739 0.477129
vt 0.484131 0.130793
vt 0.562403 0.661779
vt 0.336739 0.324620
vt 0.618075 0.515896
vt 0.379606 0.347352
vt 0.604061 0.471974
vt 0.576691 0.513402
vt 0.340132 0.168147
vt 0.422784 0.168397
vt 0.381944 0.168206
vt 0.484647 0.167815
vt 0.346436 0.513402
vt 0.618075 0.365026
vt 0.485569 0.324247
vt 0.360723 0.661779
vt 0.381679 0.207213
vt 0.382411 0.278146
vt 0.586387 0.625505
vt 0.344216 0.280382
vt 0.586387 0.549676
vt 0.343820 0.205504
vt 0.484486 0.206316
vt 0.336739 0.549676
vt 0.483973 0.281915
vt 0.336739 0.625505
vt 0.419940 0.054025
vt 0.420911 0.205534
vt 0.682784 0.609476
vt 0.211917 0.028684
vt 0.115985 0.028684
vt 0.604061 0.609476
vt 0.150879 0.008837
vt 0.177023 0.008837
vt 0.643422 0.617363
vt 0.494384 0.365026
vt 0.509417 0.346387
vt 0.211917 0.928137
vt 0.115985 0.928137
vt 0.587310 0.347352
vt 0.172788 0.928166
vt 0.155115 0.928166
vt 0.548329 0.337813
vt 0.115985 0.991163
vt 0.428743 0.365026
vt 0.652073 0.345874
vt 0.586443 0.302164
vt 0.420879 0.131118
vt 0.548277 0.296594
vt 0.549462 0.227057
vt 0.470400 0.477129
vt 0.509909 0.226058
vt 0.470400 0.401299
vt 0.512046 0.302183
vt 0.452727 0.401299
vt 0.651053 0.301190
vt 0.452727 0.477129
vt 0.650634 0.225396
vt 0.494384 0.661779
vt 0.686094 0.515896
vt 0.503243 0.031569
vt 0.686094 0.428052
vt 0.590104 0.028784
vt 0.700108 0.471974
vt 0.546110 0.008837
vt 0.480096 0.513402
vt 0.506635 0.188042
vt 0.589287 0.187792
vt 0.548447 0.187983
vt 0.443030 0.513402
vt 0.651150 0.188374
vt 0.686094 0.365026
vt 0.428743 0.661779
vt 0.652073 0.031942
vt 0.548183 0.148976
vt 0.548915 0.078043
vt 0.470400 0.625505
vt 0.510720 0.075807
vt 0.470400 0.549676
vt 0.510323 0.150685
vt 0.452727 0.549676
vt 0.650989 0.149873
vt 0.618075 0.428052
vt 0.423600 0.327405
vt 0.419791 0.282762
vt 0.587383 0.225071
vt 0.586295 0.073426
vt 0.420806 0.008837
vt 0.047966 0.928137
vt 0.587415 0.150655
vt 0.279937 0.474768
vt 0.047966 0.474768
vt 0.011331 0.474768
vt 0.316572 0.474768
vt 0.211917 0.474768
vt 0.152620 0.474768
vt 0.175282 0.474768
vt 0.115985 0.474768
s 1
f 11/21/1 42/75/2 20/37/3 21/38/4
f 47/82/5 48/84/6 16/28/7 15/27/8
f 2/3/9 35/58/10 73/125/11 69/119/12
f 71/122/13 34/57/14 1/2/15 68/118/16
f 46/80/17 37/63/18 6/9/19 13/24/20
f 1/1/15 34/56/14 36/62/21 3/7/22
f 12/23/23 11/21/1 21/38/4 19/36/24
f 48/84/6 55/97/25 22/40/26 16/28/7
f 68/118/16 70/121/27 7/12/28 6/11/19
f 52/93/29 45/78/30 12/22/23 19/35/24 4/8/31
f 8/15/32 66/116/33 38/66/34 40/71/35
f 70/120/27 69/119/12 66/116/33 7/13/28
f 32/54/36 66/115/33 8/16/32 15/26/8
f 20/37/3 42/75/2 16/29/7 22/39/26
f 42/75/2 32/54/36 15/26/8 16/29/7
f 45/78/30 46/80/17 13/24/20 12/22/23
f 18/34/37 62/110/38 50/89/39 51/91/40
f 6/10/19 7/14/28 10/20/41 13/25/20
f 13/25/20 10/20/41 11/21/1 12/23/23
f 7/14/28 66/115/33 32/54/36 10/20/41
f 10/20/41 32/54/36 42/75/2 11/21/1
f 25/45/42 63/112/43 62/111/38 18/33/37
f 49/86/44 59/104/45 26/46/46 17/30/47
f 26/47/46 25/45/42 18/33/37 17/31/47
f 49/87/44 17/32/47 18/34/37 51/91/40
f 66/116/33 69/119/12 73/125/11 38/66/34
f 33/55/48 20/37/3 22/39/26 30/50/49
f 62/110/38 23/41/50 56/99/51 50/89/39
f 62/111/38 63/112/43 31/52/52 23/42/50
f 63/112/43 33/55/48 30/50/49 31/52/52
f 59/104/45 60/106/53 27/48/54 26/46/46
f 60/106/53 52/93/29 4/8/31 19/35/24 27/48/54
f 19/36/24 21/38/4 24/44/55 27/49/54
f 27/49/54 24/44/55 25/45/42 26/47/46
f 21/38/4 20/37/3 33/55/48 24/44/55
f 24/44/55 33/55/48 63/112/43 25/45/42
f 44/77/56 54/96/57 53/95/58 64/113/59
f 22/40/26 55/97/25 61/108/60 30/51/49
f 45/79/30 52/94/29 54/96/57 44/77/56
f 31/53/52 30/51/49 61/108/60 9/18/61
f 71/122/13 37/65/18 39/68/62 72/124/63
f 15/27/8 8/17/32 40/72/35 47/82/5
f 72/123/63 39/69/62 38/66/34 73/125/11
f 41/74/64 47/83/5 40/73/35 38/67/34
f 53/95/58 55/98/25 48/85/6 64/113/59
f 64/113/59 48/85/6 47/83/5 41/74/64
f 37/64/18 46/81/17 43/76/65 39/70/62
f 46/81/17 45/79/30 44/77/56 43/76/65
f 39/70/62 43/76/65 41/74/64 38/67/34
f 43/76/65 44/77/56 64/113/59 41/74/64
f 58/103/66 51/92/40 50/90/39 65/114/67
f 59/105/45 49/88/44 51/92/40 58/103/66
f 67/117/68 61/109/60 55/98/25 53/95/58
f 23/43/50 31/53/52 9/18/61 56/100/51
f 50/90/39 56/101/51 9/19/61 65/114/67
f 65/114/67 9/19/61 61/109/60 67/117/68
f 52/94/29 60/107/53 57/102/69 54/96/57
f 60/107/53 59/105/45 58/103/66 57/102/69
f 54/96/57 57/102/69 67/117/68 53/95/58
f 57/102/69 58/103/66 65/114/67 67/117/68
f 36/60/21 72/123/63 73/125/11 35/58/10
f 34/57/14 71/122/13 72/124/63 36/61/21
f 6/11/19 37/65/18 71/122/13 68/118/16
f 3/5/22 2/3/9 69/119/12 70/120/27
f 1/2/15 3/6/22 70/121/27 68/118/16
f 3/7/22 36/62/21 35/59/10 2/4/9
l 5 14
l 29 5
l 28 29
