# Blender v3.4.1 OBJ File: ''
# www.blender.org
mtllib Water_twist.mtl
o Cylinder.001_Cylinder.003
v -0.290000 -0.400000 -0.952536
v -0.290000 0.517108 -0.275134
v 0.429670 -0.400000 -0.654439
v 0.438904 0.517108 0.026788
v 0.727767 -0.400000 0.065232
v 0.740826 0.517108 0.755691
v 0.429670 -0.400000 0.784902
v 0.438904 0.517108 1.484595
v -0.290000 -0.400000 1.082999
v -0.290000 0.517108 1.786517
v -1.009670 -0.400000 0.784902
v -1.018904 0.517108 1.484595
v -1.307767 -0.400000 0.065232
v -1.320826 0.517108 0.755691
v -1.009670 -0.400000 -0.654439
v -1.018904 0.517108 0.026788
v 0.523334 2.101611 0.310652
v -0.205569 2.101611 0.008731
v 0.825256 2.101611 1.039556
v 0.523334 2.101611 1.768460
v -0.205569 2.101611 2.070382
v -0.934473 2.101611 1.768460
v -1.236395 2.101611 1.039556
v -0.934473 2.101611 0.310652
v 1.620932 4.653813 -0.705917
v 0.892029 4.653813 -1.007839
v 1.922854 4.653813 0.022986
v 1.620932 4.653813 0.751890
v 0.892029 4.653813 1.053812
v 0.163125 4.653813 0.751890
v -0.138797 4.653813 0.022986
v 0.163125 4.653813 -0.705917
v 0.523334 6.938659 -1.397729
v -0.205569 6.938659 -1.699650
v 0.825256 6.938659 -0.668825
v 0.523334 6.938659 0.060079
v -0.205569 6.938659 0.362001
v -0.934473 6.938659 0.060079
v -1.236395 6.938659 -0.668825
v -0.934473 6.938659 -1.397729
v 0.438904 8.376589 -0.705213
v -0.290000 8.376589 -1.007135
v 0.740825 8.376589 0.023691
v 0.438904 8.376589 0.752595
v -0.290000 8.376589 1.054517
v -1.018904 8.376589 0.752595
v -1.320826 8.376589 0.023691
v -1.018904 8.376589 -0.705213
v 0.474945 9.534266 0.328957
v -0.253959 9.534266 0.027035
v 0.776867 9.534266 1.057861
v 0.474945 9.534266 1.786764
v -0.253959 9.534266 2.088686
v -0.982862 9.534266 1.786764
v -1.284784 9.534266 1.057861
v -0.982862 9.534266 0.328957
v 0.943484 11.212326 0.145642
v 0.214580 11.212326 -0.156280
v 1.245406 11.212326 0.874545
v 0.943484 11.212326 1.603449
v 0.214580 11.212326 1.905371
v -0.514324 11.212326 1.603449
v -0.816246 11.212326 0.874545
v -0.514324 11.212326 0.145642
v 0.474945 12.977784 -0.671541
v -0.253959 12.977784 -0.973463
v 0.776867 12.977784 0.057363
v 0.474945 12.977784 0.786267
v -0.253959 12.977784 1.088189
v -0.982862 12.977784 0.786267
v -1.284784 12.977784 0.057363
v -0.982862 12.977784 -0.671541
v 0.438904 14.758736 -0.692364
v -0.290000 14.758736 -0.994286
v 0.740825 14.758736 0.036540
v 0.438904 14.758736 0.765443
v -0.290000 14.758736 1.067365
v -1.018904 14.758736 0.765443
v -1.320826 14.758736 0.036540
v -1.018904 14.758736 -0.692364
v 0.429670 15.957788 -0.183754
v -0.290000 15.957788 -0.481851
v 0.727767 15.957788 0.535916
v 0.429670 15.957788 1.255586
v -0.290000 15.957788 1.553684
v -1.009670 15.957788 1.255586
v -1.307768 15.957788 0.535916
v -1.009670 15.957788 -0.183754
vt 1.000000 0.500000
vt 1.000000 1.000000
vt 0.875000 1.000000
vt 0.875000 0.500000
vt 0.750000 1.000000
vt 0.750000 0.500000
vt 0.625000 1.000000
vt 0.625000 0.500000
vt 0.500000 1.000000
vt 0.500000 0.500000
vt 0.375000 1.000000
vt 0.375000 0.500000
vt 0.250000 1.000000
vt 0.250000 0.500000
vt 0.125000 1.000000
vt 0.250000 1.000000
vt 0.125000 1.000000
vt 0.125000 0.500000
vt 0.000000 1.000000
vt 0.000000 0.500000
vt 0.750000 0.490000
vt 0.919706 0.419706
vt 0.990000 0.250000
vt 0.919706 0.080294
vt 0.750000 0.010000
vt 0.580294 0.080294
vt 0.510000 0.250000
vt 0.580294 0.419706
vt 0.000000 1.000000
vt 0.125000 1.000000
vt 0.000000 1.000000
vt 0.875000 1.000000
vt 0.750000 1.000000
vt 0.500000 1.000000
vt 0.375000 1.000000
vt 1.000000 1.000000
vt 0.625000 1.000000
vt 0.625000 1.000000
vt 0.750000 1.000000
vt 0.750000 1.000000
vt 0.625000 1.000000
vt 0.375000 1.000000
vt 0.250000 1.000000
vt 0.500000 1.000000
vt 0.875000 1.000000
vt 1.000000 1.000000
vt 0.125000 1.000000
vt 0.250000 1.000000
vt 0.250000 1.000000
vt 0.125000 1.000000
vt 1.000000 1.000000
vt 0.875000 1.000000
vt 0.000000 1.000000
vt 0.375000 1.000000
vt 0.500000 1.000000
vt 0.500000 1.000000
vt 0.625000 1.000000
vt 0.625000 1.000000
vt 0.500000 1.000000
vt 0.375000 1.000000
vt 0.750000 1.000000
vt 1.000000 1.000000
vt 0.875000 1.000000
vt 0.000000 1.000000
vt 0.000000 1.000000
vt 0.125000 1.000000
vt 0.125000 1.000000
vt 0.000000 1.000000
vt 0.875000 1.000000
vt 0.750000 1.000000
vt 0.250000 1.000000
vt 0.375000 1.000000
vt 1.000000 1.000000
vt 0.375000 1.000000
vt 0.500000 1.000000
vt 0.500000 1.000000
vt 0.375000 1.000000
vt 0.250000 1.000000
vt 0.625000 1.000000
vt 0.875000 1.000000
vt 0.750000 1.000000
vt 1.000000 1.000000
vt 0.125000 1.000000
vt 0.250000 1.000000
vt 0.250000 1.000000
vt 0.125000 1.000000
vt 0.750000 1.000000
vt 0.625000 1.000000
vt 1.000000 1.000000
vt 0.875000 1.000000
vt 0.000000 1.000000
vt 0.375000 1.000000
vt 0.375000 1.000000
vt 0.250000 1.000000
vt 0.500000 1.000000
vt 0.750000 1.000000
vt 0.625000 1.000000
vt 1.000000 1.000000
vt 0.875000 1.000000
vt 0.000000 1.000000
vt 0.419706 0.419706
vt 0.250000 0.490000
vt 0.080294 0.419706
vt 0.010000 0.250000
vt 0.080294 0.080294
vt 0.250000 0.010000
vt 0.419706 0.080294
vt 0.490000 0.250000
vt 0.625000 1.000000
vt 0.500000 1.000000
vt 0.875000 1.000000
vt 0.750000 1.000000
vt 0.125000 1.000000
vt 1.000000 1.000000
vt 0.000000 1.000000
vn 0.3161 0.5637 -0.7631
vn 0.8908 0.2651 -0.3690
vn 0.8846 -0.2885 0.3664
vn 0.3122 -0.5782 0.7538
vn -0.3122 -0.5782 0.7538
vn -0.8846 -0.2885 0.3664
vn -0.9175 0.1170 -0.3801
vn -0.8908 0.2651 -0.3690
vn -0.3161 0.5637 -0.7631
vn 0.0000 -1.0000 -0.0000
vn -0.3750 -0.1993 -0.9053
vn 0.9237 0.0193 -0.3826
vn -0.3787 -0.1436 0.9143
vn -0.3762 0.1828 -0.9083
vn 0.3787 0.1436 -0.9143
vn 0.9175 -0.1170 0.3801
vn -0.9237 -0.0193 0.3826
vn 0.3762 -0.1828 0.9083
vn 0.8062 0.4884 0.3339
vn -0.8096 0.4818 0.3353
vn 0.3750 0.1993 0.9053
vn 0.8096 -0.4818 -0.3353
vn -0.8974 0.2379 -0.3717
vn -0.3378 0.4701 0.8154
vn 0.8974 -0.2379 0.3717
vn 0.3378 -0.4701 -0.8154
vn -0.9162 0.1290 -0.3795
vn 0.3809 -0.0955 -0.9197
vn -0.3472 -0.4206 -0.8382
vn -0.8779 -0.3116 0.3636
vn 0.3472 0.4206 0.8382
vn 0.8779 0.3116 -0.3636
vn -0.8062 -0.4884 -0.3339
vn -0.3809 0.0955 0.9197
vn 0.2934 -0.6419 0.7084
vn -0.3467 -0.4234 0.8370
vn 0.9162 -0.1290 0.3795
vn 0.3467 0.4234 -0.8370
vn -0.3525 0.3892 -0.8510
vn -0.8987 -0.2320 0.3722
vn 0.3525 -0.3892 0.8510
vn 0.8987 0.2320 -0.3722
vn -0.3827 0.0059 -0.9239
vn 0.8817 0.2988 -0.3652
vn -0.8663 0.3475 -0.3588
vn -0.2969 -0.6310 0.7167
vn 0.8663 -0.3475 0.3588
vn 0.2969 0.6310 -0.7167
vn -0.2934 0.6419 -0.7084
vn -0.8817 -0.2988 0.3652
vn -0.3638 0.3100 0.8784
vn -0.8850 0.2871 0.3666
vn 0.3827 -0.0059 0.9239
vn 0.8850 -0.2871 -0.3666
vn -0.9030 0.2113 -0.3740
vn -0.3747 0.2034 0.9046
vn 0.9030 -0.2113 0.3740
vn 0.3747 -0.2034 -0.9046
vn -0.9236 -0.0232 -0.3826
vn 0.8511 0.3891 0.3525
vn 0.3638 -0.3100 -0.8784
vn -0.3382 -0.4677 -0.8166
vn -0.9217 -0.0679 0.3818
vn 0.3382 0.4677 0.8166
vn 0.9217 0.0679 -0.3818
vn -0.8511 -0.3891 -0.3525
vn -0.9137 -0.1477 0.3785
vn -0.3827 0.0031 0.9239
vn 0.9236 0.0232 0.3826
vn 0.3827 -0.0031 -0.9239
vn -0.3826 -0.0185 -0.9237
vn -0.9238 -0.0142 0.3826
vn 0.3826 0.0185 0.9237
vn 0.9238 0.0142 -0.3826
vn 0.0000 1.0000 0.0000
vn 0.3584 -0.3509 0.8651
vn 0.9109 0.1671 -0.3773
vn -0.9109 0.1671 -0.3773
vn -0.3584 -0.3509 0.8651
vn 0.9137 -0.1477 0.3785
vn 0.3559 0.3672 -0.8593
vn -0.3559 0.3672 -0.8593
usemtl None
s off
f 1/1/1 2/2/1 4/3/1 3/4/1
f 3/4/2 4/3/2 6/5/2 5/6/2
f 5/6/3 6/5/3 8/7/3 7/8/3
f 7/8/4 8/7/4 10/9/4 9/10/4
f 9/10/5 10/9/5 12/11/5 11/12/5
f 11/12/6 12/11/6 14/13/6 13/14/6
f 16/15/7 14/13/7 23/16/7 24/17/7
f 13/14/8 14/13/8 16/15/8 15/18/8
f 15/18/9 16/15/9 2/19/9 1/20/9
f 1/21/10 3/22/10 5/23/10 7/24/10 9/25/10 11/26/10 13/27/10 15/28/10
f 18/29/11 24/17/11 32/30/11 26/31/11
f 6/5/12 4/3/12 17/32/12 19/33/12
f 12/11/13 10/9/13 21/34/13 22/35/13
f 2/19/14 16/15/14 24/17/14 18/29/14
f 4/3/15 2/2/15 18/36/15 17/32/15
f 8/7/16 6/5/16 19/33/16 20/37/16
f 14/13/17 12/11/17 22/35/17 23/16/17
f 10/9/18 8/7/18 20/37/18 21/34/18
f 28/38/19 27/39/19 35/40/19 36/41/19
f 23/16/20 22/35/20 30/42/20 31/43/20
f 21/34/21 20/37/21 28/38/21 29/44/21
f 19/33/22 17/32/22 25/45/22 27/39/22
f 24/17/23 23/16/23 31/43/23 32/30/23
f 22/35/24 21/34/24 29/44/24 30/42/24
f 20/37/25 19/33/25 27/39/25 28/38/25
f 17/32/26 18/36/26 26/46/26 25/45/26
f 40/47/27 39/48/27 47/49/27 48/50/27
f 25/45/28 26/46/28 34/51/28 33/52/28
f 26/31/29 32/30/29 40/47/29 34/53/29
f 31/43/30 30/42/30 38/54/30 39/48/30
f 29/44/31 28/38/31 36/41/31 37/55/31
f 27/39/32 25/45/32 33/52/32 35/40/32
f 32/30/33 31/43/33 39/48/33 40/47/33
f 30/42/34 29/44/34 37/55/34 38/54/34
f 45/56/35 44/57/35 52/58/35 53/59/35
f 38/54/36 37/55/36 45/56/36 46/60/36
f 36/41/37 35/40/37 43/61/37 44/57/37
f 33/52/38 34/51/38 42/62/38 41/63/38
f 34/53/39 40/47/39 48/50/39 42/64/39
f 39/48/40 38/54/40 46/60/40 47/49/40
f 37/55/41 36/41/41 44/57/41 45/56/41
f 35/40/42 33/52/42 41/63/42 43/61/42
f 50/65/43 56/66/43 64/67/43 58/68/43
f 43/61/44 41/63/44 49/69/44 51/70/44
f 48/50/45 47/49/45 55/71/45 56/66/45
f 46/60/46 45/56/46 53/59/46 54/72/46
f 44/57/47 43/61/47 51/70/47 52/58/47
f 41/63/48 42/62/48 50/73/48 49/69/48
f 42/64/49 48/50/49 56/66/49 50/65/49
f 47/49/50 46/60/50 54/72/50 55/71/50
f 62/74/51 61/75/51 69/76/51 70/77/51
f 55/71/52 54/72/52 62/74/52 63/78/52
f 53/59/53 52/58/53 60/79/53 61/75/53
f 51/70/54 49/69/54 57/80/54 59/81/54
f 56/66/55 55/71/55 63/78/55 64/67/55
f 54/72/56 53/59/56 61/75/56 62/74/56
f 52/58/57 51/70/57 59/81/57 60/79/57
f 49/69/58 50/73/58 58/82/58 57/80/58
f 72/83/59 71/84/59 79/85/59 80/86/59
f 60/79/60 59/81/60 67/87/60 68/88/60
f 57/80/61 58/82/61 66/89/61 65/90/61
f 58/68/62 64/67/62 72/83/62 66/91/62
f 63/78/63 62/74/63 70/77/63 71/84/63
f 61/75/64 60/79/64 68/88/64 69/76/64
f 59/81/65 57/80/65 65/90/65 67/87/65
f 64/67/66 63/78/66 71/84/66 72/83/66
f 79/85/67 78/92/67 86/93/67 87/94/67
f 70/77/68 69/76/68 77/95/68 78/92/68
f 68/88/69 67/87/69 75/96/69 76/97/69
f 65/90/70 66/89/70 74/98/70 73/99/70
f 66/91/71 72/83/71 80/86/71 74/100/71
f 71/84/72 70/77/72 78/92/72 79/85/72
f 69/76/73 68/88/73 76/97/73 77/95/73
f 67/87/74 65/90/74 73/99/74 75/96/74
f 81/101/75 82/102/75 88/103/75 87/104/75 86/105/75 85/106/75 84/107/75 83/108/75
f 77/95/76 76/97/76 84/109/76 85/110/76
f 75/96/77 73/99/77 81/111/77 83/112/77
f 80/86/78 79/85/78 87/94/78 88/113/78
f 78/92/79 77/95/79 85/110/79 86/93/79
f 76/97/80 75/96/80 83/112/80 84/109/80
f 73/99/81 74/98/81 82/114/81 81/111/81
f 74/100/82 80/86/82 88/113/82 82/115/82
