# Blender 3.4.1
# www.blender.org
o floor_cloud_right
v 0.515187 -0.447796 -1.000000
v -0.000949 -0.507327 -1.000000
v -0.477509 -0.511843 -1.000000
v -0.493471 0.489336 -1.000000
v -0.001364 0.498231 -1.000000
v 0.511049 0.500908 -1.000000
v -0.514767 -0.520333 1.000000
v 0.006286 -0.560469 1.000000
v 0.504316 -0.539683 1.000000
v 0.535560 0.512255 1.000000
v -0.042873 0.518835 1.000000
v -0.540423 0.509314 1.000000
v 1.002095 -0.470620 0.489270
v 1.002095 -0.487743 -0.534129
v 0.535756 0.435632 -0.512442
v 0.551171 0.531515 -0.048825
v 0.493935 0.474178 0.514737
v 0.011063 0.516747 -0.530480
v 0.005625 0.489543 0.009900
v -0.050501 0.479851 0.508891
v -0.504539 0.475192 -0.464775
v -0.500134 0.500024 -0.000019
v -0.444390 0.549278 0.442446
v -0.499171 -0.500000 -0.498777
v -0.469290 -0.569704 0.038207
v -0.436818 -0.487617 0.454405
v 0.060383 -0.459056 -0.460807
v 0.031799 -0.460609 0.007751
v -0.049152 -0.502958 0.471988
v 0.463772 -0.450548 -0.478287
v 0.500614 -0.477778 -0.000957
v 0.563420 -0.471963 0.505511
v 0.501719 -0.006250 0.913352
v -0.005201 0.057983 1.061197
v -0.497173 -0.000613 1.012899
v -0.546273 0.006849 -1.016968
v -0.002971 -0.001185 -1.001476
v 0.484989 -0.047996 -0.970591
v 1.002095 0.512264 -0.492991
v -1.000000 -0.487743 -0.534129
v -1.000000 0.468245 0.506691
v -1.000000 0.020091 1.051178
v -1.000000 0.513458 1.000000
v 1.002095 0.513458 1.000000
v 1.002095 0.491960 -1.000000
v 1.002095 0.514960 0.072629
v -1.000000 -0.491462 1.000000
v -1.000000 -0.518168 -1.000000
v -1.000000 -0.470620 0.489270
v -1.000000 0.064107 -1.020217
v -1.000000 0.514960 0.072629
v -1.000000 0.512264 -0.492991
v -1.000000 0.491960 -1.000000
v -1.000000 -0.568334 -0.022204
v 1.002095 0.064107 -1.020217
v 1.002095 0.020091 1.051178
v 1.002095 -0.491462 1.000000
v 1.002095 -0.518168 -1.000000
v 1.002095 -0.568334 -0.022204
v 1.002095 0.468245 0.506691
v 1.061484 -0.063971 0.495742
v 1.026987 0.019565 0.030782
v 1.135723 -0.009421 -0.533627
vn 0.6318 -0.7740 -0.0409
vn 0.4754 -0.6448 -0.5985
vn 0.6277 0.0141 -0.7783
vn 0.9997 -0.0049 -0.0238
vn -0.0080 0.0026 -1.0000
vn -0.0047 0.7190 -0.6950
vn 0.5010 0.6247 -0.5989
vn -0.0074 -0.0009 1.0000
vn -0.0112 0.7286 0.6849
vn -0.0243 0.7348 0.6779
vn 0.0386 0.0031 0.9993
vn 0.0054 -0.9995 -0.0327
vn 0.6982 -0.7157 0.0160
vn 0.5409 -0.5964 0.5930
vn 0.0460 -0.7420 0.6688
vn 0.0127 0.9998 -0.0129
vn -0.0698 0.9975 -0.0059
vn 0.7058 0.7082 0.0153
vn -0.0015 1.0000 -0.0014
vn -0.0009 0.7281 0.6854
vn 0.5272 0.6228 0.5780
vn 0.0364 0.9992 -0.0138
vn 0.0527 0.7324 0.6789
vn -0.0339 -0.9974 0.0640
vn -0.0025 -0.9996 0.0270
vn -0.0410 -0.7496 0.6606
vn -0.0060 -0.7352 0.6778
vn 0.0267 -0.9986 -0.0458
vn 0.0375 -0.7632 0.6451
vn 0.6137 0.0020 0.7896
vn 0.0033 0.0020 1.0000
vn 0.0460 0.0015 0.9989
vn 0.0039 0.0064 -1.0000
vn 0.0316 0.7199 -0.6934
vn 0.0034 0.7126 -0.7015
vn 0.0089 0.0006 -1.0000
vn 0.0240 0.7132 -0.7005
vn 0.0225 0.0004 -0.9997
vn 0.0581 -0.7319 -0.6789
vn -0.0227 -0.6802 -0.7327
vn -0.0378 -0.9991 -0.0175
vn 0.0612 -0.9981 -0.0024
vn -0.0536 -0.9984 -0.0185
vn 0.0616 -0.9978 -0.0260
vn 0.0192 -0.7324 -0.6806
vn 0.0415 -0.9987 -0.0298
vn 0.0551 -0.9983 0.0171
vn -0.0041 -0.7363 -0.6766
vn -0.0038 -0.9990 -0.0452
vn -0.0098 -0.9999 0.0129
vn 0.0035 1.0000 -0.0087
vn 0.0074 1.0000 -0.0056
vn 0.0117 0.9998 -0.0160
vn 0.0133 0.9999 -0.0081
vn -0.0045 0.9998 -0.0170
vn -0.0104 0.9999 -0.0095
vn 0.6252 0.7801 -0.0245
vn 0.6479 0.7609 0.0355
vn 0.0452 0.9989 -0.0158
vn -0.0109 0.9999 -0.0117
vn 0.5838 -0.8116 0.0219
vn 0.9999 -0.0095 0.0121
vn 0.9995 0.0079 0.0310
vt 0.385449 0.293727
vt 0.977699 0.100693
vt 0.385393 0.196880
vt 0.988670 0.197320
vt 0.385416 0.108045
vt 0.989506 0.286505
vt 0.802087 0.289414
vt 0.405867 0.104838
vt 0.800497 0.197331
vt 0.405348 0.196992
vt 0.800073 0.101478
vt 0.404558 0.293055
vt 0.009582 0.100582
vt 0.635132 0.692972
vt 0.009420 0.198008
vt 0.627634 0.594857
vt 0.009355 0.291204
vt 0.629864 0.500688
vt 0.780966 0.297662
vt 0.827484 0.495427
vt 0.780456 0.189307
vt 0.830384 0.604193
vt 0.780660 0.096102
vt 0.828958 0.697568
vt 0.104905 0.385498
vt 0.423183 0.690049
vt 0.298792 0.385198
vt 0.418778 0.498382
vt 0.495779 0.298658
vt 0.583699 0.301316
vt 0.689754 0.290351
vt 0.493493 0.199946
vt 0.595015 0.198787
vt 0.688418 0.188681
vt 0.506068 0.103106
vt 0.593141 0.103882
vt 0.676288 0.114131
vt 0.291588 0.103751
vt 0.190470 0.108119
vt 0.111709 0.114482
vt 0.284399 0.208851
vt 0.196876 0.203462
vt 0.109167 0.187544
vt 0.287903 0.284309
vt 0.198182 0.291550
vt 0.102933 0.303179
vt 0.729801 0.500918
vt 0.743841 0.597471
vt 0.733061 0.689820
vt 0.892401 0.299391
vt 0.893933 0.197697
vt 0.902805 0.106345
vt 0.500753 0.386280
vt 0.609008 0.505078
vt 0.298693 0.010013
vt 0.688733 0.009313
vt 0.737100 0.784698
vt 0.830385 0.783994
vt 0.781447 0.010085
vt 0.781447 0.385080
vt 0.830385 0.407751
vt 0.609008 0.785850
vt 0.801440 0.009580
vt 0.404896 0.385880
vt 0.606256 0.409613
vt 0.606813 0.385788
vt 0.608980 0.611598
vt 0.009313 0.009827
vt 0.640392 0.784233
vt 0.385932 0.010405
vt 0.990687 0.384296
vt 0.104746 0.009313
vt 0.881645 0.384281
vt 0.606948 0.010291
vt 0.501028 0.010109
vt 0.801495 0.384195
vt 0.406010 0.009985
vt 0.202061 0.009533
vt 0.881596 0.009313
vt 0.525774 0.404906
vt 0.516275 0.795693
vt 0.737161 0.404906
vt 0.009402 0.384611
vt 0.419866 0.786197
vt 0.639876 0.406508
vt 0.414512 0.409230
vt 0.385932 0.385552
vt 0.990687 0.009521
vt 0.202079 0.386961
vt 0.404558 0.594269
vt 0.688625 0.385569
vt 0.600286 0.693125
vt 0.499988 0.691223
vt 0.515300 0.603533
vt 0.510002 0.497471
s 1
f 14/28/1 58/86/2 55/80/3 63/95/4
f 38/52/5 6/11/6 45/63/7 55/79/3
f 35/49/8 12/24/9 43/58/10 42/57/11
f 32/46/12 13/25/13 57/83/14 9/17/15
f 23/37/16 41/56/17 43/59/10 12/23/9
f 60/91/18 17/31/19 10/19/20 44/60/21
f 17/31/19 20/34/22 11/21/23 10/19/20
f 20/34/22 23/37/16 12/23/9 11/21/23
f 49/72/24 26/40/25 7/13/26 47/68/27
f 26/40/25 29/43/28 8/15/29 7/13/26
f 29/43/28 32/46/12 9/17/15 8/15/29
f 56/82/30 44/61/21 10/20/20 33/47/31
f 33/47/31 10/20/20 11/22/23 34/48/32
f 34/48/32 11/22/23 12/24/9 35/49/8
f 50/73/33 53/76/34 4/7/35 36/50/36
f 36/50/36 4/7/35 5/9/37 37/51/38
f 37/51/38 5/9/37 6/11/6 38/52/5
f 2/3/39 1/1/40 30/44/41 27/41/42
f 27/41/42 30/44/41 31/45/43 28/42/44
f 28/42/44 31/45/43 32/46/12 29/43/28
f 3/5/45 2/3/39 27/41/42 24/38/46
f 24/38/46 27/41/42 28/42/44 25/39/47
f 25/39/47 28/42/44 29/43/28 26/40/25
f 48/70/48 3/5/45 24/38/46 40/55/49
f 40/55/49 24/38/46 25/39/47 54/78/50
f 54/78/50 25/39/47 26/40/25 49/72/24
f 5/10/37 4/8/35 21/35/51 18/32/52
f 18/32/52 21/35/51 22/36/53 19/33/54
f 19/33/54 22/36/53 23/37/16 20/34/22
f 6/12/6 5/10/37 18/32/52 15/29/55
f 15/29/55 18/32/52 19/33/54 16/30/56
f 16/30/56 19/33/54 20/34/22 17/31/19
f 45/64/7 6/12/6 15/29/55 39/53/57
f 39/53/57 15/29/55 16/30/56 46/66/58
f 46/66/58 16/30/56 17/31/19 60/91/18
f 4/8/35 53/77/34 52/75/59 21/35/51
f 21/35/51 52/75/59 51/74/60 22/36/53
f 22/36/53 51/74/60 41/56/17 23/37/16
f 1/1/40 58/87/2 14/27/1 30/44/41
f 30/44/41 14/27/1 59/89/61 31/45/43
f 31/45/43 59/89/61 13/25/13 32/46/12
f 57/84/14 13/26/13 61/93/62 56/81/30
f 13/26/13 59/90/61 62/94/63 61/93/62
f 59/90/61 14/28/1 63/95/4 62/94/63
f 62/94/63 63/95/4 39/54/57 46/67/58
f 61/93/62 62/94/63 46/67/58 60/92/18
f 56/81/30 61/93/62 60/92/18 44/62/21
f 2/4/39 37/51/38 38/52/5 1/2/40
f 3/6/45 36/50/36 37/51/38 2/4/39
f 48/71/48 50/73/33 36/50/36 3/6/45
f 8/16/29 34/48/32 35/49/8 7/14/26
f 9/18/15 33/47/31 34/48/32 8/16/29
f 57/85/14 56/82/30 33/47/31 9/18/15
f 7/14/26 35/49/8 42/57/11 47/69/27
f 1/2/40 38/52/5 55/79/3 58/88/2
f 63/95/4 55/80/3 45/65/7 39/54/57
