# Blender 3.4.1
# www.blender.org
o floor_cloud_middle
v 0.515187 -0.447796 -1.000000
v -0.000949 -0.507327 -1.000000
v -0.477509 -0.511843 -1.000000
v -0.493471 0.489336 -1.000000
v -0.001364 0.498231 -1.000000
v 0.511049 0.500908 -1.000000
v -0.514767 -0.520333 1.000000
v 0.006286 -0.560469 1.000000
v 0.504316 -0.539683 1.000000
v 0.535560 0.512255 1.000000
v -0.042873 0.518835 1.000000
v -0.540423 0.509314 1.000000
v 1.002095 -0.470620 0.489270
v 1.002095 -0.487743 -0.534129
v 0.535756 0.435632 -0.512442
v 0.551171 0.531515 -0.048825
v 0.493935 0.474178 0.514737
v 0.011063 0.516747 -0.530480
v 0.005625 0.489543 0.009900
v -0.050501 0.479851 0.508891
v -0.504539 0.475192 -0.464775
v -0.500134 0.500024 -0.000019
v -0.444390 0.549278 0.442446
v -0.499171 -0.500000 -0.498777
v -0.469290 -0.569704 0.038207
v -0.436818 -0.487617 0.454405
v 0.060383 -0.459056 -0.460807
v 0.031799 -0.460609 0.007751
v -0.049152 -0.502958 0.471988
v 0.463772 -0.450548 -0.478287
v 0.500614 -0.477778 -0.000957
v 0.563420 -0.471963 0.505511
v 0.501719 -0.006250 0.913352
v -0.005201 0.057983 1.061197
v -0.497173 -0.000613 1.012899
v -0.546273 0.006849 -1.016968
v -0.002971 -0.001185 -1.001476
v 0.484989 -0.047996 -0.970591
v 1.002095 0.512264 -0.492991
v -1.000000 -0.487743 -0.534129
v -1.000000 0.468245 0.506691
v -1.000000 0.020091 1.051178
v -1.000000 0.513458 1.000000
v 1.002095 0.513458 1.000000
v 1.002095 0.491960 -1.000000
v 1.002095 0.514960 0.072629
v -1.000000 -0.491462 1.000000
v -1.000000 -0.518168 -1.000000
v -1.000000 -0.470620 0.489270
v -1.000000 0.064107 -1.020217
v -1.000000 0.514960 0.072629
v -1.000000 0.512264 -0.492991
v -1.000000 0.491960 -1.000000
v -1.000000 -0.568334 -0.022204
v 1.002095 0.064107 -1.020217
v 1.002095 0.020091 1.051178
v 1.002095 -0.491462 1.000000
v 1.002095 -0.518168 -1.000000
v 1.002095 -0.568334 -0.022204
v 1.002095 0.468245 0.506691
vn -0.0080 0.0026 -1.0000
vn -0.0047 0.7190 -0.6950
vn -0.0868 0.7131 -0.6957
vn -0.0489 -0.0012 -0.9988
vn -0.0074 -0.0009 1.0000
vn -0.0112 0.7286 0.6849
vn -0.0243 0.7348 0.6779
vn 0.0386 0.0031 0.9993
vn 0.0054 -0.9995 -0.0327
vn -0.0211 -0.9997 0.0131
vn -0.0705 -0.7042 0.7065
vn 0.0460 -0.7420 0.6688
vn 0.0127 0.9998 -0.0129
vn -0.0698 0.9975 -0.0059
vn 0.0076 0.9999 0.0107
vn -0.0015 1.0000 -0.0014
vn -0.0009 0.7281 0.6854
vn -0.1022 0.7268 0.6792
vn 0.0364 0.9992 -0.0138
vn 0.0527 0.7324 0.6789
vn -0.0339 -0.9974 0.0640
vn -0.0025 -0.9996 0.0270
vn -0.0410 -0.7496 0.6606
vn -0.0060 -0.7352 0.6778
vn 0.0267 -0.9986 -0.0458
vn 0.0375 -0.7632 0.6451
vn -0.1398 0.0006 0.9902
vn 0.0033 0.0020 1.0000
vn 0.0460 0.0015 0.9989
vn 0.0039 0.0064 -1.0000
vn 0.0316 0.7199 -0.6934
vn 0.0034 0.7126 -0.7015
vn 0.0089 0.0006 -1.0000
vn 0.0240 0.7132 -0.7005
vn 0.0225 0.0004 -0.9997
vn 0.0581 -0.7319 -0.6789
vn -0.0227 -0.6802 -0.7327
vn -0.0378 -0.9991 -0.0175
vn 0.0612 -0.9981 -0.0024
vn -0.0536 -0.9984 -0.0185
vn 0.0616 -0.9978 -0.0260
vn 0.0192 -0.7324 -0.6806
vn 0.0415 -0.9987 -0.0298
vn 0.0551 -0.9983 0.0171
vn -0.0041 -0.7363 -0.6766
vn -0.0038 -0.9990 -0.0452
vn -0.0098 -0.9999 0.0129
vn 0.0035 1.0000 -0.0087
vn 0.0074 1.0000 -0.0056
vn 0.0117 0.9998 -0.0160
vn 0.0133 0.9999 -0.0081
vn -0.0045 0.9998 -0.0170
vn -0.0104 0.9999 -0.0095
vn -0.0609 0.9978 -0.0259
vn -0.0147 0.9997 0.0218
vn 0.0452 0.9989 -0.0158
vn -0.0109 0.9999 -0.0117
vn -0.1110 -0.7380 -0.6656
vn -0.1154 -0.9927 -0.0362
vn -0.1104 -0.9939 -0.0012
vt 0.385449 0.293727
vt 0.977699 0.100693
vt 0.385393 0.196880
vt 0.988670 0.197320
vt 0.385416 0.108045
vt 0.989506 0.286505
vt 0.802087 0.289414
vt 0.405867 0.104838
vt 0.800497 0.197331
vt 0.405348 0.196992
vt 0.800073 0.101478
vt 0.404558 0.293055
vt 0.009582 0.100582
vt 0.635132 0.692972
vt 0.009420 0.198008
vt 0.627634 0.594857
vt 0.009355 0.291204
vt 0.629864 0.500688
vt 0.780966 0.297662
vt 0.827484 0.495427
vt 0.780456 0.189307
vt 0.830384 0.604193
vt 0.780660 0.096102
vt 0.828958 0.697568
vt 0.104905 0.385498
vt 0.298792 0.385198
vt 0.495779 0.298658
vt 0.583699 0.301316
vt 0.689754 0.290351
vt 0.493493 0.199946
vt 0.595015 0.198787
vt 0.688418 0.188681
vt 0.506068 0.103106
vt 0.593141 0.103882
vt 0.676288 0.114131
vt 0.291588 0.103751
vt 0.190470 0.108119
vt 0.111709 0.114482
vt 0.284399 0.208851
vt 0.196876 0.203462
vt 0.109167 0.187544
vt 0.287903 0.284309
vt 0.198182 0.291550
vt 0.102933 0.303179
vt 0.729801 0.500918
vt 0.743841 0.597471
vt 0.733061 0.689820
vt 0.892401 0.299391
vt 0.893933 0.197697
vt 0.902805 0.106345
vt 0.500753 0.386280
vt 0.298693 0.010013
vt 0.688733 0.009313
vt 0.737100 0.784698
vt 0.830385 0.783994
vt 0.781447 0.010085
vt 0.781447 0.385080
vt 0.830385 0.407751
vt 0.801440 0.009580
vt 0.404896 0.385880
vt 0.606813 0.385788
vt 0.009313 0.009827
vt 0.640392 0.784233
vt 0.385932 0.010405
vt 0.990687 0.384296
vt 0.104746 0.009313
vt 0.881645 0.384281
vt 0.606948 0.010291
vt 0.501028 0.010109
vt 0.801495 0.384195
vt 0.406010 0.009985
vt 0.202061 0.009533
vt 0.881596 0.009313
vt 0.737161 0.404906
vt 0.009402 0.384611
vt 0.639876 0.406508
vt 0.385932 0.385552
vt 0.990687 0.009521
vt 0.202079 0.386961
vt 0.688625 0.385569
s 1
f 38/50/1 6/11/2 45/59/3 55/73/4
f 35/47/5 12/24/6 43/55/7 42/54/8
f 32/44/9 13/25/10 57/75/11 9/17/12
f 23/35/13 41/53/14 43/56/7 12/23/6
f 60/80/15 17/29/16 10/19/17 44/57/18
f 17/29/16 20/32/19 11/21/20 10/19/17
f 20/32/19 23/35/13 12/23/6 11/21/20
f 49/66/21 26/38/22 7/13/23 47/62/24
f 26/38/22 29/41/25 8/15/26 7/13/23
f 29/41/25 32/44/9 9/17/12 8/15/26
f 56/74/27 44/58/18 10/20/17 33/45/28
f 33/45/28 10/20/17 11/22/20 34/46/29
f 34/46/29 11/22/20 12/24/6 35/47/5
f 50/67/30 53/70/31 4/7/32 36/48/33
f 36/48/33 4/7/32 5/9/34 37/49/35
f 37/49/35 5/9/34 6/11/2 38/50/1
f 2/3/36 1/1/37 30/42/38 27/39/39
f 27/39/39 30/42/38 31/43/40 28/40/41
f 28/40/41 31/43/40 32/44/9 29/41/25
f 3/5/42 2/3/36 27/39/39 24/36/43
f 24/36/43 27/39/39 28/40/41 25/37/44
f 25/37/44 28/40/41 29/41/25 26/38/22
f 48/64/45 3/5/42 24/36/43 40/52/46
f 40/52/46 24/36/43 25/37/44 54/72/47
f 54/72/47 25/37/44 26/38/22 49/66/21
f 5/10/34 4/8/32 21/33/48 18/30/49
f 18/30/49 21/33/48 22/34/50 19/31/51
f 19/31/51 22/34/50 23/35/13 20/32/19
f 6/12/2 5/10/34 18/30/49 15/27/52
f 15/27/52 18/30/49 19/31/51 16/28/53
f 16/28/53 19/31/51 20/32/19 17/29/16
f 45/60/3 6/12/2 15/27/52 39/51/54
f 39/51/54 15/27/52 16/28/53 46/61/55
f 46/61/55 16/28/53 17/29/16 60/80/15
f 4/8/32 53/71/31 52/69/56 21/33/48
f 21/33/48 52/69/56 51/68/57 22/34/50
f 22/34/50 51/68/57 41/53/14 23/35/13
f 1/1/37 58/77/58 14/26/59 30/42/38
f 30/42/38 14/26/59 59/79/60 31/43/40
f 31/43/40 59/79/60 13/25/10 32/44/9
f 2/4/36 37/49/35 38/50/1 1/2/37
f 3/6/42 36/48/33 37/49/35 2/4/36
f 48/65/45 50/67/30 36/48/33 3/6/42
f 8/16/26 34/46/29 35/47/5 7/14/23
f 9/18/12 33/45/28 34/46/29 8/16/26
f 57/76/11 56/74/27 33/45/28 9/18/12
f 7/14/23 35/47/5 42/54/8 47/63/24
f 1/2/37 38/50/1 55/73/4 58/78/58
